<?xml version="1.0" encoding="utf-8"?>
<!-- Generator: Adobe Illustrator 16.0.0, SVG Export Plug-In . SVG Version: 6.00 Build 0)  -->
<!DOCTYPE svg PUBLIC "-//W3C//DTD SVG 1.1//EN" "http://www.w3.org/Graphics/SVG/1.1/DTD/svg11.dtd">
<svg version="1.1" xmlns="http://www.w3.org/2000/svg" xmlns:xlink="http://www.w3.org/1999/xlink" x="0px" y="0px"
	 width="214.305px" height="121.75px" viewBox="0 0 214.305 121.75" enable-background="new 0 0 214.305 121.75"
	 xml:space="preserve">
<g id="_x31_366x768">
	<g>
		<g>
			<g>
				<g>
					<path opacity="0.1" fill="#272727" d="M214.305,94.334c0,0,0-0.001,0-0.001c0-0.036-0.003-0.071-0.003-0.106
						c-0.001-0.357-0.009-0.713-0.027-1.066c-0.007-0.157-0.022-0.312-0.033-0.468c-0.017-0.232-0.03-0.464-0.053-0.693
						c-0.017-0.176-0.043-0.35-0.064-0.524c-0.025-0.208-0.048-0.416-0.079-0.622c-0.026-0.181-0.061-0.358-0.091-0.538
						c-0.034-0.197-0.067-0.395-0.105-0.59c-0.037-0.182-0.079-0.361-0.12-0.541c-0.042-0.19-0.083-0.38-0.13-0.567
						c-0.045-0.181-0.097-0.359-0.146-0.539c-0.052-0.184-0.102-0.368-0.157-0.55c-0.055-0.181-0.114-0.36-0.174-0.539
						c-0.058-0.174-0.114-0.349-0.177-0.522c-0.065-0.184-0.136-0.365-0.205-0.547c-0.063-0.163-0.127-0.327-0.192-0.489
						c-0.078-0.187-0.158-0.372-0.24-0.556c-0.067-0.151-0.134-0.301-0.204-0.451c-0.09-0.192-0.184-0.382-0.279-0.572
						c-0.067-0.134-0.135-0.268-0.204-0.401c-0.107-0.202-0.217-0.401-0.328-0.599c-0.065-0.113-0.13-0.227-0.195-0.339
						c-0.125-0.213-0.253-0.425-0.387-0.634c-0.055-0.089-0.111-0.177-0.168-0.264c-0.15-0.231-0.304-0.459-0.462-0.684
						c-0.039-0.058-0.08-0.115-0.121-0.172c-0.181-0.252-0.363-0.5-0.554-0.744c-0.019-0.022-0.035-0.044-0.053-0.066
						c-4.28-5.479-10.943-9.006-18.437-9.006c-1.334,0-2.643,0.118-3.916,0.333c-5.763-11.019-17.295-18.543-30.592-18.543
						c-12.814,0-23.989,6.99-29.941,17.36c-1.48-0.277-3.007-0.429-4.567-0.429c-13.624,0-24.668,11.044-24.668,24.668
						c0,5.271,1.659,10.153,4.476,14.162c0.06,0.084,0.119,0.167,0.179,0.25c0.259,0.36,0.526,0.713,0.805,1.058
						c0.045,0.056,0.087,0.113,0.132,0.167c0.302,0.369,0.617,0.728,0.94,1.077c0.113,0.124,0.229,0.243,0.345,0.363
						c0.222,0.231,0.447,0.457,0.678,0.679c0.137,0.133,0.274,0.266,0.415,0.396c0.291,0.269,0.591,0.53,0.896,0.785
						c0.179,0.151,0.364,0.294,0.548,0.44c0.226,0.177,0.45,0.352,0.682,0.521c0.187,0.138,0.377,0.272,0.569,0.405
						c0.209,0.146,0.424,0.286,0.639,0.425c0.197,0.126,0.391,0.256,0.59,0.377c0.353,0.214,0.713,0.419,1.078,0.616
						c0.213,0.115,0.432,0.224,0.649,0.333c0.215,0.107,0.43,0.212,0.647,0.313c0.226,0.105,0.45,0.209,0.68,0.308
						c0.252,0.108,0.508,0.208,0.764,0.308c0.348,0.136,0.698,0.263,1.053,0.383c0.248,0.083,0.496,0.167,0.746,0.243
						c0.238,0.072,0.479,0.139,0.721,0.204c0.244,0.066,0.49,0.126,0.737,0.185c0.234,0.056,0.468,0.114,0.704,0.162
						c0.427,0.088,0.857,0.164,1.293,0.23c0.235,0.035,0.474,0.062,0.714,0.091c0.265,0.031,0.531,0.061,0.799,0.084
						c0.245,0.022,0.491,0.042,0.738,0.056c0.312,0.019,0.626,0.026,0.942,0.033c0.17,0.004,0.337,0.019,0.51,0.019
						c5.092,0,9.819-1.545,13.758-4.189c5.771,4.356,12.957,6.935,20.75,6.935l0,0c0,0,0.001,0,0.002,0
						c3.478,0,6.833-0.521,9.999-1.478c0.129-0.04,0.261-0.074,0.39-0.115c0.172-0.054,0.339-0.115,0.51-0.173
						c0.296-0.098,0.593-0.194,0.885-0.3c0.004-0.001,0.008-0.003,0.014-0.005c3.669-1.335,7.05-3.276,10.02-5.702
						c3.657,2.364,8.014,3.742,12.687,3.742c0.001,0,0.002,0,0.004,0h0.001c8.755,0,16.379-4.812,20.389-11.931
						c1.907-3.386,3-7.291,3-11.452C214.305,94.336,214.305,94.335,214.305,94.334z"/>
					<path fill="#FFFFFF" d="M135.835,26.404c-1.936,0-3.832,0.171-5.681,0.482C121.801,10.91,105.079,0,85.8,0
						C67.221,0,51.02,10.135,42.39,25.171c-2.148-0.402-4.36-0.622-6.624-0.622C16.013,24.549,0,40.562,0,60.315
						s16.013,35.766,35.766,35.766c7.386,0,14.246-2.239,19.943-6.073c8.375,6.314,18.796,10.062,30.091,10.062
						c12.004,0,23.016-4.23,31.637-11.276c5.3,3.432,11.613,5.432,18.398,5.432c18.729,0,33.911-15.182,33.911-33.91
						C169.746,41.585,154.564,26.404,135.835,26.404z"/>
					<path fill="#E2E2E2" d="M169.746,60.322c0,18.719-15.184,33.903-33.919,33.903c-6.774,0-13.091-1.997-18.396-5.425
						c-8.624,7.045-19.638,11.27-31.636,11.27c-11.297,0-21.716-3.738-30.084-10.055c-5.71,3.833-12.566,6.074-19.948,6.074
						c-13.754,0-25.698-7.761-31.663-19.152c6.519,7.072,15.872,11.5,26.265,11.5c7.382,0,14.238-2.241,19.948-6.074
						c8.368,6.316,18.787,10.068,30.084,10.068c11.998,0,23.012-4.238,31.636-11.284c5.305,3.428,11.621,5.439,18.396,5.439
						c18.734,0,33.919-15.184,33.919-33.917c0-5.602-1.351-10.878-3.766-15.521C166.276,43.208,169.746,51.36,169.746,60.322z"/>
				</g>
			</g>
		</g>
	</g>
</g>
<g id="_x38_00x800">
</g>
</svg>
