<?xml version="1.0" encoding="UTF-8"?>
<svg width="29px" height="20px" viewBox="0 0 29 20" version="1.1" xmlns="http://www.w3.org/2000/svg" xmlns:xlink="http://www.w3.org/1999/xlink">
    <!-- Generator: Sketch 53.2 (72643) - https://sketchapp.com -->
    <title>leaf</title>
    <desc>Created with Sketch.</desc>
    <g id="Page-1" stroke="none" stroke-width="1" fill="none" fill-rule="evenodd">
        <g id="Group" transform="translate(-87.000000, -1.000000)" fill="#000000">
            <g id="tree" transform="translate(86.409533, 0.558077)">
                <path d="M0.889090861,15.9861918 L2.87340477,14.7093141 C2.90094465,14.6915926 2.92933844,14.6752346 2.95848351,14.6602994 L5.09416212,13.5658791 C5.42807739,13.3947656 5.6381093,13.0511321 5.6381093,12.6759264 L5.6381093,10.2799162 C5.6381093,10.0859464 5.69452149,9.89616326 5.80047344,9.73368719 L7.19168237,7.60028446 C7.24648849,7.51623993 7.31363108,7.44092219 7.39085441,7.37686166 L8.12999579,6.76370775 C8.23408763,6.67735848 8.38847066,6.69174167 8.47481993,6.79583352 C8.51127552,6.8397798 8.53122837,6.89508379 8.53122837,6.9521827 L8.53122837,7.08979046 C8.53122837,7.33681615 8.6226601,7.57510005 8.78790301,7.75872051 L8.936676,7.92403935 C9.08830632,8.09253329 9.34781831,8.10620396 9.51631225,7.95457365 C9.55510782,7.91966091 9.58688852,7.8776691 9.60995088,7.83084899 L10.4941231,6.035845 C10.5447371,5.93309098 10.6126285,5.83979653 10.6948349,5.7600327 L12.7059795,3.80864444 C12.892575,3.62759315 13.1423486,3.52633302 13.4023437,3.52633302 L13.501269,3.52633302 C13.8142121,3.52633302 14.1042666,3.69033137 14.2655936,3.95848613 L14.8290305,4.89502088 C15.1137417,5.36826283 15.7281842,5.52109715 16.2014262,5.23638589 C16.3154784,5.16776995 16.414685,5.07707582 16.4932302,4.96962028 L18.0959577,2.77697388 C18.1708141,2.674565 18.2644713,2.58733342 18.3719335,2.51993221 L19.6412226,1.72382348 C20.1090941,1.43037053 20.7262696,1.57176475 21.0197226,2.03963632 C21.0209106,2.04153042 21.0220922,2.04342851 21.0232675,2.04533054 L21.1511584,2.25230693 C21.4255881,2.69643893 22.0080975,2.83400983 22.4522295,2.55958014 C22.5262905,2.51381777 22.5936748,2.45804391 22.6524718,2.39384003 L24.1184767,0.793023624 C24.2101943,0.692871801 24.3213501,0.61245074 24.4451661,0.556664382 L24.629973,0.473398027 C24.8090244,0.392724824 25.0195729,0.472476171 25.1002461,0.651527644 C25.106986,0.666486716 25.1126825,0.681894337 25.1172948,0.697640059 L25.4592516,1.86504261 C25.5892748,2.30892725 26.0067468,2.60571942 26.4687094,2.58269346 L28.5560332,2.47865334 C29.1076332,2.45115951 29.5770815,2.87603149 29.6045753,3.42763146 C29.6106214,3.54893179 29.5945203,3.6703189 29.5570606,3.78584852 L28.852534,5.958681 C28.8043269,6.10735648 28.7916406,6.26526184 28.815493,6.41972666 L29.0426699,7.89089475 C29.1191549,8.38620207 28.817178,8.8616275 28.3363332,9.0029345 L25.7205009,9.77165553 C25.2948097,9.89675443 25.0024507,10.2873926 25.0024507,10.7310847 L25.0024507,11.5769517 C25.0024507,11.9468929 24.7025541,12.2467896 24.3326128,12.2467896 C24.2916088,12.2467896 24.2506915,12.2430245 24.210376,12.2355418 L24.210376,12.2355418 C23.9080142,12.1794223 23.6174076,12.3790411 23.5612881,12.681403 C23.5490199,12.747502 23.5488229,12.8152763 23.5607067,12.8814456 L23.615731,13.1878219 C23.7069302,13.6956205 23.3692096,14.1812041 22.861411,14.2724033 C22.8069122,14.2821911 22.7516511,14.2871141 22.6962803,14.2871141 L20.4887514,14.2871141 C20.1373837,14.2871141 19.8117958,14.4715221 19.6311072,14.7728705 L18.2985357,16.995304 C18.0145268,17.4689678 17.4003117,17.6227135 16.9266479,17.3387046 C16.865668,17.302141 16.8087616,17.2591781 16.756894,17.2105448 L16.1195961,16.6129854 C15.716713,16.235224 15.0838756,16.2555892 14.7061142,16.6584723 C14.6788907,16.6875062 14.6534248,16.7181395 14.6298524,16.7502088 L12.295359,19.926189 C12.1069304,20.1825382 11.8077641,20.333928 11.4896128,20.333928 L11.3598327,20.333928 C11.1148061,20.333928 10.878307,20.243967 10.6952249,20.0811204 L6.06737798,15.9647738 C5.80157066,15.7283453 5.43017129,15.6509284 5.09203973,15.7614681 L1.79575925,16.8390662 C1.69544361,16.8718607 1.59056885,16.8885681 1.48502877,16.8885681 L0.945575079,16.8885681 C0.749454304,16.8885681 0.590467003,16.7295808 0.590467003,16.53346 L0.590467003,16.53346 C0.590467003,16.3121248 0.702961698,16.1059632 0.889090861,15.9861918 Z" id="leaf"></path>
            </g>
        </g>
    </g>
</svg>