<?xml version="1.0" encoding="UTF-8"?>
<svg width="1441px" height="220px" viewBox="0 0 1441 220" version="1.1" xmlns="http://www.w3.org/2000/svg" xmlns:xlink="http://www.w3.org/1999/xlink">
    <!-- Generator: Sketch 53.2 (72643) - https://sketchapp.com -->
    <title>leavestop</title>
    <desc>Created with Sketch.</desc>
    <g id="Page-1" stroke="none" stroke-width="1" fill="none" fill-rule="evenodd">
        <g id="leavestop" fill="#000000" fill-rule="nonzero">
            <path d="M1440.5,34 C1440.5,95.83 1440.5,157.67 1440.5,219.5 C960.5,219.5 480.5,219.5 0.5,219.5 C0.5,147.83 0.5,76.17 0.5,4.5 C4.69,2.38 9.1,1.22 13.82,0.94 C21.6,0.48 29.05,1.87 36.24,4.63 C42.71,7.11 48.33,10.83 52.41,16.64 C52.8,17.2 54.02,17.45 54.82,17.4 C57.86,17.22 60.92,16.44 63.92,16.64 C70.54,17.09 76.94,18.7 83.01,21.5 C83.58,21.76 84.4,21.67 85.06,21.53 C87.46,21.03 89.85,19.97 92.24,19.98 C98.91,20.02 104.84,21.88 108.36,28.3 C108.68,28.89 109.61,29.28 110.34,29.5 C114.69,30.83 118.85,32.57 121.23,36.7 C122.37,38.68 123.45,39.23 125.58,38.42 C133.03,35.6 140.16,37.16 146.71,40.94 C149.75,42.69 152.06,45.7 154.86,48.27 C158.38,46.41 162.41,46.51 166.54,47.7 C170.56,48.87 173.76,52.29 178.3,52 C179.07,51.95 180.07,52.01 180.57,51.57 C185.49,47.26 191.12,46.56 197.12,48.38 C199.71,49.17 201.75,49.4 204.5,48.17 C207.28,46.93 210.81,47.38 214.46,47.05 C217.87,40.06 226.35,38.75 232.77,41.03 C233.55,41.31 234.98,41.07 235.53,40.5 C241.12,34.73 250.26,34.22 257.33,37.22 C261.28,38.9 264.3,41.61 266.59,45.09 C278.39,39.79 286.38,42.78 291.55,54.33 C296.29,53.51 300.66,54.41 304.53,57.44 C308.49,60.53 309.78,64.85 310.14,69.75 C312.33,68.96 314.31,68.11 316.36,67.53 C324.92,65.12 333.37,65.82 341.83,68.35 C350.11,70.83 357.1,75.14 362.51,81.88 C365.78,85.96 367.14,90.74 366.98,96.02 C369.07,96.02 370.91,95.85 372.7,96.05 C377.19,96.56 381.12,98.31 383.42,102.39 C384.39,104.12 385.52,104.2 387.05,103.89 C397.24,101.84 407.16,102.62 416.59,107.09 C421.9,109.6 426.56,113.03 429.42,118.46 C429.78,119.15 430.91,119.56 431.76,119.86 C435.16,121.05 438.57,122.18 442.01,123.23 C442.75,123.46 443.91,123.63 444.37,123.23 C451.31,117.29 462.67,118.41 469.73,123 C471.09,123.88 472.35,124.92 473.61,125.84 C484.18,117.24 504,118.12 517.41,129.82 C524.01,126.39 530.9,125.72 537.81,128.49 C540.58,129.6 542.11,129.67 544.72,127.5 C556.11,118.04 568.95,117.87 582.27,122.97 C585.75,124.3 588.46,126.18 587.5,130.59 C587.46,130.79 587.62,131.04 587.81,131.72 C589.62,131.4 591.61,131.44 593.23,130.69 C604.77,125.34 616.22,125.37 627.67,130.83 C629.62,131.76 631.27,131.88 633.08,130.26 C635.47,128.12 638.37,127.05 641.68,126.89 C645.61,126.7 649.14,127.63 652.02,129.64 C653.56,127.23 654.61,124.52 656.54,122.81 C659.02,120.6 662.04,118.76 665.12,117.51 C672.9,114.36 681.06,113.84 689.38,114.85 C696.97,115.77 703.99,117.83 709.66,123.31 C710.01,123.65 710.91,123.82 711.34,123.62 C720.5,119.39 730,119.24 739.73,120.93 C740.76,121.11 742.17,120.81 742.99,120.18 C748.74,115.81 760.94,115.53 766.53,121.78 C767.14,122.46 768.35,122.83 769.32,122.93 C774.1,123.41 778.58,124.43 781.9,128.35 C782.35,128.87 783.65,129.16 784.3,128.91 C785.98,128.27 785.401836,125.987755 788.214732,124.003878 C791.027627,122.02 796.17,122.76 796.82,123.01 C798.09,123.49 798.66,123.06 799.41,122.02 C803.23,116.68 808.61,114.86 814.99,115.39 C817.26,115.58 819.37,116.07 821.39,113.75 C822.73,112.22 825.46,111.79 827.65,111.14 C828.78,110.81 830.08,111.08 831.31,111.08 C831.15,110.89 830.99,110.7 830.83,110.5 C832.03,108.58 832.97,106.42 834.48,104.8 C837.97,101.06 842.49,99.85 847.52,100.41 C848.82,100.56 849.78,100.45 850.64,99.1 C855.31,91.77 863.29,90.1 870.74,91.18 C875.01,91.8 878.73,93.77 881.8,96.97 C885.83,93.07 890.51,91.44 895.84,92.08 C901.27,92.73 905.56,95.26 907.87,100.56 C912.54,98.51 917.02,98.38 921.45,100.51 C926.04,102.71 928.53,106.53 929.46,111.31 C932.44,109.65 935.16,107.89 938.07,106.55 C946.79,102.53 956.02,102.04 965.29,103.6 C972.55,104.82 979.27,107.61 984.67,112.94 C987.94,116.17 990.17,119.97 990.96,124.51 C1001.92,122.03 1006.03,123.31 1010.93,130.47 C1015.83,137.63 1020.9,133.04 1021.93,130.47 C1022.96,127.9 1023.59,124.78 1025.3,122.44 C1027.26,119.75 1029.96,117.46 1032.72,115.52 C1039.15,110.99 1046.5,108.77 1054.27,107.76 C1061.9,106.76 1069.29,107.13 1076.23,110.91 C1076.82,111.23 1078.02,111.14 1078.55,110.73 C1086.12,104.98 1094.73,102.31 1104.13,101.89 C1106,101.81 1107.4,101.24 1108.71,99.62 C1113.33,93.91 1125.51,91.42 1131.64,96.32 C1132.19,96.76 1133.33,96.7 1134.14,96.53 C1138.58,95.62 1142.91,95.71 1146.85,98.17 C1148.74,99.35 1150.06,99.35 1151.6,97.66 C1156.26,92.54 1162.5,91.03 1169.04,90.43 C1173.65,90.01 1177.83,91.48 1181.67,94 C1186.47,88.35 1192.39,86.79 1199.45,87.83 C1201.58,88.14 1203.95,86.8 1206.2,86.17 C1206.35,86.13 1206.41,85.75 1206.49,85.52 C1209.26,78.17 1215,75.15 1222.41,74.36 C1223.48,74.25 1224.51,73.17 1225.45,72.4 C1227.21,70.96 1226.10348,70.07 1229.19977,68.35 C1232.29606,66.63 1234.99,68.5323681 1234.99,66.63 C1234.99,64.7276319 1240.86,53.98 1247.15,52.56 C1249.4,52.05 1250.62,51.44 1251.53,49.18 C1255.38,39.61 1269.08,34.78 1278.33,39.64 C1280.12,40.58 1281.14,40.73 1282.35,38.85 C1284.49,35.53 1287.9,33.85 1291.59,32.99 C1297.64,31.58 1303.92838,37.54 1307.01,37.98 C1310.09162,38.42 1315.23,33.74 1320.16,34.88 C1325.11,36.02 1329.38013,40.91 1330.35,42.8 C1331.31987,44.69 1333.93,39.71 1335.71,38.21 C1343.51,31.62 1352.61,28.16 1362.7,27.48 C1375.36,26.62 1386.66,29.1 1393.42,41.42 C1403.98,36.15 1409.52,36.79 1415.04,44.04 C1418.7,42.15 1422.35,42.03 1425.12,44.69 C1427.7,42.09 1429.75,39.41 1432.38,37.55 C1434.76,35.93 1437.77,35.16 1440.5,34 Z" id="Path"></path>
        </g>
    </g>
</svg>