<?xml version="1.0" encoding="UTF-8"?>
<svg width="371px" height="579px" viewBox="0 0 371 579" version="1.1" xmlns="http://www.w3.org/2000/svg" xmlns:xlink="http://www.w3.org/1999/xlink">
    <!-- Generator: Sketch 52.6 (67491) - http://www.bohemiancoding.com/sketch -->
    <title>moon</title>
    <desc>Created with Sketch.</desc>
    <g id="Page-1" stroke="none" stroke-width="1" fill="none" fill-rule="evenodd">
        <g id="moon" transform="translate(0.000000, -1.000000)">
            <g id="Group" transform="translate(171.000000, 0.000000)">
                <rect id="Rectangle" fill="#B4B4B4" x="4.369" y="12.803" width="7.822" height="327.527"></rect>
                <polygon id="Path" fill="#F3F3F3" points="10.314 336.148 8.279 318.821 8.279 12.803 10.314 12.803"></polygon>
                <circle id="Oval" fill="#CECECD" cx="8.28" cy="8.382" r="7.383"></circle>
                <circle id="Oval" fill="#D9D9D8" cx="11.247" cy="5.436" r="1.731"></circle>
            </g>
            <path d="M291.587,83.477 C275.572,87.477 199.102,91.808 183.086,83.477 C183.086,71.42 183.086,28.353 183.086,16.296 C199.102,24.627 275.572,20.297 291.587,16.296 C291.587,28.354 291.587,71.42 291.587,83.477 Z" id="Path" fill="#171E4D"></path>
            <path d="M201.28,40.93 L201.28,46.3 L206.95,46.3 C207.79,46.3 208.48,46.99 208.48,47.83 C208.48,48.67 207.79,49.36 206.95,49.36 L201.28,49.36 L201.28,54.88 L209.23,54.88 C210.1,54.88 210.79,55.57 210.79,56.44 C210.79,57.31 210.1,58 209.23,58 L199.54,58 C198.58,58 197.8,57.22 197.8,56.26 L197.8,39.55 C197.8,38.59 198.58,37.81 199.54,37.81 L208.9,37.81 C209.77,37.81 210.46,38.5 210.46,39.37 C210.46,40.24 209.77,40.93 208.9,40.93 L201.28,40.93 Z M229,43.96 C233.08,43.96 234.19,46.57 234.19,49.18 L234.19,56.68 C234.19,57.58 233.47,58.24 232.57,58.24 C231.61,58.24 230.95,57.58 230.95,56.68 L230.95,49.78 C230.95,48.07 230.26,46.9 228.31,46.9 C226.15,46.9 225.31,48.07 225.31,49.75 L225.31,56.68 C225.31,57.58 224.59,58.24 223.69,58.24 C222.73,58.24 222.07,57.58 222.07,56.68 L222.07,49.78 C222.07,48.07 221.38,46.9 219.43,46.9 C217.18,46.9 216.43,48.22 216.43,49.99 L216.43,56.68 C216.43,57.58 215.74,58.24 214.81,58.24 C213.88,58.24 213.19,57.58 213.19,56.68 L213.19,45.76 C213.19,44.86 213.91,44.14 214.81,44.14 C215.71,44.14 216.43,44.86 216.43,45.76 C217,44.89 218.26,43.96 220.27,43.96 C222.73,43.96 223.96,44.74 224.71,45.91 C225.67,44.62 226.96,43.96 229,43.96 Z M249.55,51.19 C249.55,56.08 247.03,58.39 242.98,58.39 C238.93,58.39 236.41,56.08 236.41,51.19 C236.41,46.27 238.93,43.96 242.98,43.96 C247.03,43.96 249.55,46.27 249.55,51.19 Z M246.28,51.19 C246.28,48.22 245.14,46.72 242.98,46.72 C240.82,46.72 239.68,48.22 239.68,51.19 C239.68,54.13 240.82,55.63 242.98,55.63 C245.14,55.63 246.28,54.13 246.28,51.19 Z M257.29,46.84 C255.97,46.84 255.04,47.44 254.29,47.98 C253.99,48.19 253.75,48.28 253.39,48.28 C252.61,48.28 251.98,47.65 251.98,46.87 C251.98,46.54 252.1,46.18 252.37,45.88 C253.21,44.95 254.71,43.96 257.29,43.96 C261.01,43.96 263.23,45.79 263.23,48.97 L263.23,56.65 C263.23,57.52 262.51,58.24 261.64,58.24 C260.77,58.24 260.05,57.52 260.05,56.65 C259.24,57.94 257.92,58.39 256.12,58.39 C253.18,58.39 251.23,56.56 251.23,53.86 C251.23,51.07 253.48,49.63 256.09,49.63 L260.02,49.63 L260.02,49.09 C260.02,47.74 259.03,46.84 257.29,46.84 Z M256.96,55.69 C258.55,55.69 260.02,54.67 260.02,52.99 L260.02,52.15 L256.51,52.15 C255.19,52.15 254.47,52.78 254.47,53.86 C254.47,55 255.28,55.69 256.96,55.69 Z M276.16,58.24 C275.59,58.24 275.17,57.97 274.9,57.61 L270.43,51.61 L269.47,52.36 L269.47,56.68 C269.47,57.58 268.75,58.24 267.85,58.24 C266.92,58.24 266.23,57.58 266.23,56.68 L266.23,38.2 C266.23,37.3 266.92,36.64 267.85,36.64 C268.75,36.64 269.47,37.3 269.47,38.2 L269.47,48.79 L274.9,44.53 C275.29,44.23 275.59,44.14 275.95,44.14 C276.82,44.14 277.51,44.83 277.51,45.7 C277.51,46.15 277.3,46.63 276.91,46.93 L272.98,49.93 L277.39,55.72 C277.63,56.05 277.72,56.38 277.72,56.68 C277.72,57.55 277.03,58.24 276.16,58.24 Z" id="Emoak" fill="#FFFFFF"></path>
            <path d="M198.848,68.136 L198.848,69.792 C198.848,70.932 199.508,71.46 200.432,71.46 C201.536,71.46 202.124,70.764 202.124,69.264 C202.124,67.788 201.524,67.08 200.432,67.08 C199.304,67.08 198.848,68.136 198.848,68.136 Z M200.48,66.384 C202.028,66.384 202.892,67.296 202.892,69.264 C202.892,71.232 201.98,72.156 200.432,72.156 C199.064,72.156 198.08,71.376 198.08,69.792 L198.08,63.84 C198.08,63.624 198.248,63.456 198.464,63.456 C198.68,63.456 198.848,63.624 198.848,63.84 L198.848,67.164 C199.124,66.78 199.712,66.384 200.48,66.384 Z M203.552,73.692 C204.596,73.692 204.872,72.984 205.364,71.772 L203.36,67.008 C203.348,66.972 203.324,66.924 203.324,66.84 C203.324,66.624 203.492,66.456 203.708,66.456 C203.924,66.456 204.02,66.588 204.068,66.708 L205.76,70.848 L207.452,66.708 C207.5,66.588 207.596,66.456 207.812,66.456 C208.028,66.456 208.196,66.624 208.196,66.84 C208.196,66.924 208.172,66.972 208.16,67.008 L205.796,72.636 C205.304,73.812 204.692,74.412 203.552,74.412 C203.348,74.412 203.192,74.256 203.192,74.052 C203.192,73.848 203.348,73.692 203.552,73.692 Z M214.064,64.692 L211.916,64.692 C211.7,64.692 211.532,64.524 211.532,64.308 C211.532,64.092 211.7,63.924 211.916,63.924 L217.016,63.924 C217.232,63.924 217.4,64.092 217.4,64.308 C217.4,64.524 217.232,64.692 217.016,64.692 L214.88,64.692 L214.88,71.688 C214.88,71.916 214.7,72.096 214.472,72.096 C214.244,72.096 214.064,71.916 214.064,71.688 L214.064,64.692 Z M219.62,66.384 C221.18,66.384 222.14,67.296 222.14,69.264 C222.14,71.232 221.18,72.156 219.62,72.156 C218.072,72.156 217.1,71.232 217.1,69.264 C217.1,67.296 218.072,66.384 219.62,66.384 Z M219.62,71.46 C220.724,71.46 221.36,70.8 221.36,69.264 C221.36,67.752 220.724,67.08 219.62,67.08 C218.516,67.08 217.88,67.752 217.88,69.264 C217.88,70.8 218.516,71.46 219.62,71.46 Z M224.108,68.136 L224.108,69.792 C224.108,70.932 224.768,71.46 225.692,71.46 C226.796,71.46 227.384,70.764 227.384,69.264 C227.384,67.788 226.784,67.08 225.692,67.08 C224.564,67.08 224.108,68.136 224.108,68.136 Z M225.74,66.384 C227.288,66.384 228.152,67.296 228.152,69.264 C228.152,71.232 227.24,72.156 225.692,72.156 C224.324,72.156 223.34,71.376 223.34,69.792 L223.34,63.84 C223.34,63.624 223.508,63.456 223.724,63.456 C223.94,63.456 224.108,63.624 224.108,63.84 L224.108,67.164 C224.384,66.78 224.972,66.384 225.74,66.384 Z M230.108,66.84 L230.108,71.712 C230.108,71.928 229.94,72.096 229.724,72.096 C229.508,72.096 229.34,71.928 229.34,71.712 L229.34,66.84 C229.34,66.624 229.508,66.456 229.724,66.456 C229.94,66.456 230.108,66.624 230.108,66.84 Z M229.724,65.328 C229.436,65.328 229.268,65.16 229.268,64.872 C229.268,64.524 229.436,64.392 229.724,64.392 C230.012,64.392 230.18,64.524 230.18,64.872 C230.18,65.16 230.012,65.328 229.724,65.328 Z M233.672,67.104 C233.036,67.104 232.652,67.296 232.28,67.716 C232.16,67.848 232.076,67.884 231.968,67.884 C231.776,67.884 231.62,67.728 231.62,67.536 C231.62,67.452 231.644,67.392 231.68,67.332 C232.016,66.804 232.664,66.384 233.672,66.384 C235.064,66.384 235.832,67.2 235.832,68.424 L235.832,71.724 C235.832,71.928 235.664,72.096 235.46,72.096 C235.256,72.096 235.088,71.928 235.088,71.724 L235.088,71.292 C234.788,71.856 234.092,72.156 233.372,72.156 C232.1,72.156 231.296,71.544 231.296,70.44 C231.296,69.384 232.1,68.748 233.396,68.748 L235.088,68.748 L235.088,68.424 C235.088,67.608 234.548,67.104 233.672,67.104 Z M233.444,71.46 C234.284,71.46 235.088,70.944 235.088,69.924 L235.088,69.42 L233.396,69.42 C232.616,69.42 232.076,69.744 232.076,70.44 C232.076,71.064 232.508,71.46 233.444,71.46 Z M238.976,67.128 C238.436,67.128 237.908,67.296 237.908,67.848 C237.908,69.108 241.064,68.64 241.064,70.56 C241.064,71.652 240.164,72.144 239.024,72.144 C238.04,72.144 237.284,71.676 236.972,71.28 C236.912,71.196 236.888,71.136 236.888,71.052 C236.888,70.86 237.044,70.704 237.236,70.704 C237.308,70.704 237.404,70.728 237.5,70.824 C237.872,71.196 238.352,71.412 239.024,71.412 C239.708,71.412 240.296,71.184 240.296,70.56 C240.296,69.324 237.14,69.816 237.14,67.848 C237.14,66.852 237.956,66.396 238.976,66.396 C239.792,66.396 240.428,66.672 240.8,67.164 C240.836,67.212 240.884,67.284 240.884,67.392 C240.884,67.584 240.728,67.74 240.536,67.74 C240.476,67.74 240.38,67.728 240.284,67.632 C239.96,67.32 239.6,67.128 238.976,67.128 Z M249.752,65.448 C249.392,65.004 248.816,64.5 247.808,64.5 C246.548,64.5 246.068,65.124 246.068,65.808 C246.068,67.8 250.604,66.948 250.604,69.84 C250.604,71.34 249.572,72.168 247.724,72.168 C246.356,72.168 245.336,71.472 244.928,70.692 C244.88,70.596 244.868,70.548 244.868,70.476 C244.868,70.26 245.036,70.092 245.252,70.092 C245.396,70.092 245.516,70.164 245.588,70.284 C245.972,70.908 246.668,71.424 247.724,71.424 C249.044,71.424 249.788,70.896 249.788,69.84 C249.788,67.596 245.252,68.652 245.252,65.808 C245.252,64.704 246.056,63.756 247.808,63.756 C248.948,63.756 249.872,64.236 250.376,64.992 C250.424,65.064 250.448,65.136 250.448,65.22 C250.448,65.436 250.28,65.604 250.064,65.604 C249.956,65.604 249.848,65.568 249.752,65.448 Z M252.212,66.552 L252.212,65.292 C252.212,65.088 252.392,64.908 252.596,64.908 C252.812,64.908 252.98,65.088 252.98,65.292 L252.98,66.552 L253.76,66.552 C253.964,66.552 254.12,66.708 254.12,66.912 C254.12,67.116 253.964,67.272 253.76,67.272 L252.98,67.272 L252.98,70.584 C252.98,71.1 253.268,71.376 253.676,71.376 C253.88,71.376 254.048,71.532 254.048,71.736 C254.048,71.94 253.88,72.096 253.676,72.096 C252.728,72.096 252.212,71.46 252.212,70.584 L252.212,67.272 L251.744,67.272 C251.54,67.272 251.384,67.116 251.384,66.912 C251.384,66.708 251.54,66.552 251.744,66.552 L252.212,66.552 Z M255.524,66.456 C255.728,66.456 255.908,66.624 255.908,66.84 L255.908,69.972 C255.908,70.752 256.16,71.424 257.372,71.424 C258.584,71.424 258.836,70.752 258.836,69.972 L258.836,66.84 C258.836,66.624 259.016,66.456 259.232,66.456 C259.436,66.456 259.604,66.624 259.604,66.84 L259.604,69.972 C259.604,71.112 259.232,72.156 257.372,72.156 C255.524,72.156 255.14,71.112 255.14,69.972 L255.14,66.84 C255.14,66.624 255.308,66.456 255.524,66.456 Z M261.812,66.84 L261.812,67.368 C262.052,66.816 262.652,66.408 263.48,66.408 C263.684,66.408 263.852,66.576 263.852,66.78 C263.852,66.984 263.684,67.152 263.48,67.152 C262.376,67.152 261.812,67.92 261.812,69.024 L261.812,71.712 C261.812,71.928 261.644,72.096 261.428,72.096 C261.212,72.096 261.044,71.928 261.044,71.712 L261.044,66.84 C261.044,66.624 261.212,66.456 261.428,66.456 C261.644,66.456 261.812,66.624 261.812,66.84 Z M267.116,66.384 C268.964,66.384 269.324,67.488 269.324,68.508 L269.324,71.712 C269.324,71.928 269.156,72.096 268.94,72.096 C268.724,72.096 268.556,71.928 268.556,71.712 L268.556,68.664 C268.556,67.716 268.28,67.068 267.116,67.068 C265.928,67.068 265.52,67.788 265.52,68.748 L265.52,71.712 C265.52,71.928 265.352,72.096 265.136,72.096 C264.92,72.096 264.752,71.928 264.752,71.712 L264.752,66.84 C264.752,66.624 264.92,66.456 265.136,66.456 C265.352,66.456 265.52,66.624 265.52,66.84 L265.52,67.224 C265.748,66.768 266.336,66.384 267.116,66.384 Z" id="by-Tobias-Sturn" fill="#4A90E2"></path>
            <g id="Group" transform="translate(0.000000, 208.000000)">
                <path d="M370.711,185.971 C370.711,288.339 287.725,371.327 185.352,371.327 C82.988,371.328 0,288.339 0,185.971 C0,83.601 82.988,0.613 185.352,0.613 C287.725,0.613 370.711,83.601 370.711,185.971 Z" id="Path" fill="#CFD0D1"></path>
                <g transform="translate(25.000000, 28.000000)" id="Path">
                    <path d="M228.281,92.337 C228.281,92.337 215.279,119.057 244.069,134.291 C273.302,149.755 284.382,128.726 287.591,122.688" fill="#DEDEDD"></path>
                    <path d="M194.571,19.65 C194.571,19.65 188.427,47.536 220.031,53.64 C252.119,59.843 258.078,37.891 259.371,31.254" fill="#DEDEDD"></path>
                    <path d="M287.109,123.678 C281.245,134.714 263.302,136.647 247.052,127.995 C230.814,119.344 222.391,103.378 228.281,92.337 C234.162,81.297 252.101,79.361 268.342,88.016 C284.59,96.669 292.998,112.634 287.109,123.678 Z" fill="#808080"></path>
                    <path d="M284.807,124.946 C279.506,134.908 262.825,136.391 247.563,128.258 C232.289,120.125 224.211,105.453 229.501,95.492 C234.82,85.538 251.501,84.053 266.761,92.18 C282.041,100.317 290.111,114.988 284.807,124.946 Z" fill="#9E9E9E"></path>
                    <path d="M270.881,120.964 C268.64,125.169 261.6,125.792 255.148,122.359 C248.69,118.924 245.28,112.73 247.523,108.52 C249.758,104.312 256.803,103.679 263.256,107.121 C269.711,110.554 273.123,116.757 270.881,120.964 Z" fill="#CFD0D1"></path>
                    <path d="M85.949,105.514 C85.949,105.514 90.258,150.839 133.878,148.372 C178.164,145.86 175.579,108.589 175.098,99.205" fill="#DEDEDD"></path>
                    <path d="M175.228,100.704 C176.105,117.871 156.842,132.873 132.177,134.195 C107.525,135.523 86.832,122.687 85.949,105.514 C85.067,88.344 104.345,73.348 128.988,72.016 C153.652,70.687 174.345,83.524 175.228,100.704 Z" fill="#808080"></path>
                    <path d="M168.239,103.832 C169.041,119.324 152.903,132.787 132.209,133.91 C111.522,135.023 94.103,123.375 93.298,107.884 C92.506,92.392 108.631,78.93 129.328,77.812 C150.016,76.691 167.441,88.342 168.239,103.832 Z" fill="#9E9E9E"></path>
                    <path d="M154.697,109.019 C155.034,115.562 147.373,121.294 137.575,121.824 C127.783,122.353 119.581,117.473 119.247,110.928 C118.915,104.378 126.583,98.648 136.362,98.121 C146.156,97.59 154.359,102.465 154.697,109.019 Z" fill="#CFD0D1"></path>
                    <path d="M5.308,123.147 C5.308,123.147 26.104,140.705 45.55,119.107 C62.719,100.024 44.254,88.85 40.053,84.832" fill="#DEDEDD"></path>
                    <path d="M40.734,85.447 C48.42,92.812 46.72,107.218 36.931,117.63 C27.145,128.042 12.98,130.511 5.307,123.147 C-2.38,115.786 -0.674,101.368 9.108,90.961 C18.905,80.55 33.07,78.083 40.734,85.447 Z" fill="#808080"></path>
                    <path d="M36.63,92.178 C43.554,98.824 42.518,111.296 34.307,120.034 C26.093,128.774 13.815,130.477 6.881,123.833 C-0.048,117.185 0.99,104.712 9.197,95.979 C17.422,87.243 29.693,85.538 36.63,92.178 Z" fill="#9E9E9E"></path>
                    <path d="M35.685,190.545 C35.685,190.545 34.469,194.566 31.5,197.228 C31.5,197.228 31.97,213.568 52.543,217.471 C73.418,221.425 79.019,205.346 79.019,205.346 C79.019,205.346 76.917,202.615 77.863,197.894" fill="#DEDEDD"></path>
                    <path d="M81.885,199.058 C79.779,209.486 66.69,215.755 52.658,213.048 C38.631,210.346 28.966,199.696 31.087,189.267 C33.203,178.839 46.292,172.576 60.317,175.277 C74.344,177.976 84.002,188.63 81.885,199.058 Z" fill="#808080"></path>
                    <path d="M73.996,199.179 C72.092,208.59 61.002,214.378 49.224,212.115 C37.448,209.844 29.442,200.377 31.347,190.969 C33.255,181.557 44.355,175.773 56.127,178.033 C67.9,180.306 75.9,189.767 73.996,199.179 Z" fill="#9E9E9E"></path>
                    <path d="M168.613,282.713 C168.613,282.713 168.628,288.244 166.075,292.388 C166.075,292.388 174.921,309.508 203.336,305.36 C232.179,301.165 231.654,281.211 231.654,281.211 C231.654,281.211 227.633,279.078 226.582,273.501" fill="#DEDEDD"></path>
                    <path d="M233.608,272.326 C235.978,285.071 221.614,297.74 201.527,300.616 C181.43,303.491 163.226,295.491 160.851,282.742 C158.476,269.997 172.837,257.331 192.922,254.459 C213.02,251.583 231.228,259.585 233.608,272.326 Z" fill="#808080"></path>
                    <path d="M223.124,275.811 C225.272,287.313 213.335,298.593 196.471,301.017 C179.596,303.43 164.195,296.069 162.056,284.572 C159.913,273.06 171.844,261.781 188.698,259.368 C205.577,256.953 220.979,264.314 223.124,275.811 Z" fill="#9E9E9E"></path>
                    <path d="M224.246,189.265 C226.297,197.031 220.569,205.954 211.457,209.187 C202.359,212.439 193.316,208.759 191.259,200.988 C189.212,193.22 194.932,184.3 204.05,181.058 C213.157,177.82 222.206,181.493 224.246,189.265 Z" fill="#808080"></path>
                    <path d="M219.628,192.187 C221.482,199.195 216.784,207.083 209.149,209.808 C201.499,212.522 193.801,209.052 191.956,202.04 C190.106,195.032 194.806,187.144 202.452,184.422 C210.104,181.708 217.792,185.179 219.628,192.187 Z" fill="#9E9E9E"></path>
                    <path d="M305.482,200.972 C307.537,208.741 301.804,217.665 292.707,220.91 C283.598,224.144 274.542,220.47 272.505,212.705 C270.464,204.932 276.176,196.014 285.281,192.77 C294.396,189.533 303.432,193.206 305.482,200.972 Z" fill="#808080"></path>
                    <path d="M300.879,203.898 C302.729,210.912 298.037,218.799 290.391,221.519 C282.729,224.235 275.048,220.764 273.186,213.749 C271.346,206.741 276.041,198.856 283.692,196.138 C291.336,193.414 299.035,196.893 300.879,203.898 Z" fill="#9E9E9E"></path>
                    <path d="M259.154,33.816 C255.667,45.825 238.498,51.398 220.817,46.262 C203.154,41.115 191.645,27.22 195.134,15.202 C198.631,3.192 215.791,-2.381 233.461,2.76 C251.142,7.9 262.633,21.805 259.154,33.816 Z" fill="#808080"></path>
                    <path d="M257.152,35.531 C254.01,46.369 237.986,51.239 221.362,46.408 C204.753,41.579 193.837,28.872 196.996,18.044 C200.136,7.204 216.167,2.336 232.775,7.167 C249.395,11.995 260.307,24.695 257.152,35.531 Z" fill="#9E9E9E"></path>
                    <path d="M205.798,201.453 C205.866,202.761 204.329,203.909 202.369,204.017 C200.403,204.122 198.755,203.143 198.698,201.829 C198.625,200.518 200.163,199.369 202.125,199.267 C204.082,199.162 205.729,200.142 205.798,201.453 Z" fill="#CFD0D1"></path>
                    <path d="M109.761,268.283 C111.808,276.059 106.083,284.979 96.975,288.214 C87.87,291.456 78.822,287.78 76.784,280.013 C74.73,272.25 80.456,263.326 89.561,260.088 C98.677,256.847 107.717,260.516 109.761,268.283 Z" fill="#808080"></path>
                    <path d="M105.151,271.208 C106.993,278.224 102.301,286.108 94.663,288.828 C87.017,291.548 79.315,288.067 77.475,281.062 C75.62,274.051 80.33,266.169 87.971,263.442 C95.612,260.731 103.307,264.201 105.151,271.208 Z" fill="#9E9E9E"></path>
                    <path d="M91.312,280.477 C91.383,281.787 89.838,282.935 87.879,283.038 C85.925,283.143 84.268,282.172 84.209,280.86 C84.147,279.548 85.673,278.399 87.639,278.291 C89.599,278.187 91.244,279.165 91.312,280.477 Z" fill="#CFD0D1"></path>
                    <path d="M140.417,222.751 C141.43,226.591 138.597,231.017 134.077,232.619 C129.561,234.223 125.084,232.405 124.071,228.559 C123.062,224.711 125.881,220.283 130.408,218.68 C134.924,217.076 139.402,218.893 140.417,222.751 Z" fill="#808080"></path>
                    <path d="M138.125,224.19 C139.048,227.672 136.721,231.574 132.94,232.924 C129.14,234.271 125.332,232.555 124.416,229.077 C123.501,225.598 125.833,221.699 129.624,220.341 C133.403,219.001 137.219,220.718 138.125,224.19 Z" fill="#9E9E9E"></path>
                    <path d="M131.271,228.785 C131.298,229.434 130.544,230.002 129.577,230.055 C128.6,230.111 127.783,229.63 127.754,228.975 C127.712,228.329 128.484,227.753 129.454,227.7 C130.431,227.65 131.235,228.135 131.271,228.785 Z" fill="#CFD0D1"></path>
                    <path d="M195.646,285.718 C195.792,288.601 192.609,291.117 188.531,291.339 C184.453,291.559 181.019,289.403 180.867,286.51 C180.715,283.626 183.914,281.108 187.992,280.883 C192.063,280.665 195.509,282.827 195.646,285.718 Z" fill="#CFD0D1"></path>
                    <path d="M46.005,205.015 C43.644,206.691 39.816,205.346 37.447,202.014 C35.077,198.682 35.062,194.627 37.427,192.961 C39.789,191.29 43.627,192.634 45.988,195.963 C48.355,199.292 48.369,203.351 46.005,205.015 Z" fill="#CFD0D1"></path>
                    <path d="M287.551,215.001 C287.621,216.514 285.949,217.831 283.805,217.952 C281.668,218.066 279.854,216.929 279.779,215.418 C279.704,213.899 281.376,212.574 283.523,212.466 C285.66,212.347 287.471,213.476 287.551,215.001 Z" fill="#CFD0D1"></path>
                    <path d="M21.741,121.65 C21.831,123.168 20.151,124.494 18.006,124.607 C15.858,124.72 14.065,123.589 13.987,122.072 C13.908,120.553 15.586,119.234 17.73,119.115 C19.868,119 21.676,120.129 21.741,121.65 Z" fill="#CFD0D1"></path>
                    <path d="M228.541,39.236 C228.614,40.75 226.939,42.073 224.801,42.194 C222.649,42.302 220.851,41.172 220.78,39.654 C220.709,38.137 222.371,36.82 224.527,36.697 C226.67,36.578 228.465,37.714 228.541,39.236 Z" fill="#CFD0D1"></path>
                    <path d="M103.193,19.44 C103.272,20.956 101.589,22.276 99.447,22.393 C97.306,22.512 95.502,21.373 95.426,19.85 C95.348,18.339 97.025,17.019 99.167,16.901 C101.316,16.79 103.113,17.919 103.193,19.44 Z" fill="#CFD0D1"></path>
                </g>
            </g>
            <g id="Group" transform="translate(67.000000, 168.000000)">
                <g transform="translate(7.000000, 29.000000)">
                    <path d="M88.834,23.972 L58.749,1.442 C58.433,1.208 58.121,1.026 57.81,0.857 C56.995,0.292 55.974,0.036 54.917,0.192 L27.699,4.098 C26.64,4.254 25.733,4.779 25.107,5.549 C24.859,5.805 24.611,6.076 24.375,6.393 L1.846,36.47 C0.697,38.005 0.253,39.607 0.852,40.057 L8.188,45.548 C8.787,45.996 10.53,45.075 11.679,43.532 L27.027,23.434 L31.165,52.246 C31.484,54.472 32.89,56.056 35.116,55.738 L62.331,51.83 C64.558,51.51 65.458,49.592 65.138,47.364 L61.002,18.554 L81.39,33.53 C82.92,34.675 84.692,35.099 85.142,34.499 L90.716,27.149 C91.164,26.55 90.366,25.122 88.834,23.972 Z" id="Path" fill="#CDCCCC"></path>
                    <polygon id="Path" fill="#4E4E4E" points="22.854 28.901 12.264 22.559 15.002 18.905 25.686 25.195"></polygon>
                    <polygon id="Path" fill="#4E4E4E" points="66.478 22.636 74.855 13.577 71.198 10.836 62.718 19.874"></polygon>
                    <path d="M59.36,36.351 C59.679,38.58 58.138,40.644 55.91,40.966 L38.152,43.514 C35.925,43.832 33.86,42.286 33.541,40.057 L30.21,16.869 C33.664,12.257 30.21,16.869 33.664,12.257 L51.422,9.706 C56.031,13.16 51.422,9.706 56.031,13.16 L59.36,36.351 Z" id="Path" fill="#4E4E4E"></path>
                    <g transform="translate(32.000000, 16.000000)">
                        <rect id="Rectangle" fill="#2AAAE2" transform="translate(2.972537, 5.074924) rotate(-8.175480) translate(-2.972537, -5.074924) " x="0.912614575" y="3.69997565" width="4.11984525" height="2.74989671"></rect>
                        <rect id="Rectangle" fill="#D41C5C" transform="translate(11.802526, 3.809534) rotate(-8.175480) translate(-11.802526, -3.809534) " x="9.05612906" y="2.43658547" width="5.49279368" height="2.74589686"></rect>
                        <polygon id="Path" fill="#2AAAE2" points="22.876 3.612 18.801 4.198 18.413 1.481 22.491 0.897"></polygon>
                    </g>
                    <polygon id="Path" fill="#F3F3F3" points="57.028 34.562 35.278 37.685 33.329 24.093 55.073 20.972"></polygon>
                    <g transform="translate(39.000000, 37.000000)" fill="#F3F3F3" id="Path">
                        <path d="M2.445,2.979 C2.532,3.573 2.119,4.123 1.523,4.208 C0.93,4.295 0.378,3.882 0.293,3.285 C0.207,2.69 0.618,2.138 1.214,2.057 C1.81,1.972 2.359,2.381 2.445,2.979 Z"></path>
                        <path d="M8.676,2.084 C8.762,2.678 8.35,3.228 7.756,3.314 C7.158,3.399 6.609,2.99 6.524,2.391 C6.437,1.801 6.851,1.245 7.442,1.162 C8.041,1.078 8.59,1.487 8.676,2.084 Z"></path>
                        <path d="M14.906,1.192 C14.989,1.784 14.576,2.336 13.983,2.419 C13.389,2.505 12.839,2.094 12.754,1.495 C12.669,0.907 13.082,0.354 13.677,0.271 C14.271,0.184 14.821,0.594 14.906,1.192 Z"></path>
                    </g>
                </g>
                <rect id="Rectangle" fill="#CDCCCC" transform="translate(48.058480, 99.562885) rotate(-8.181151) translate(-48.058480, -99.562885) " x="40.8676482" y="82.9777722" width="14.3816644" height="33.1702259"></rect>
                <rect id="Rectangle" fill="#CDCCCC" transform="translate(67.738182, 96.762708) rotate(-8.168994) translate(-67.738182, -96.762708) " x="60.5478424" y="80.1789249" width="14.3806789" height="33.1675657"></rect>
                <polygon id="Path" fill="#4E4E4E" points="73.121 82.215 38.909 87.126 38.069 81.26 72.275 76.345"></polygon>
                <rect id="Rectangle" fill="#4E4E4E" transform="translate(50.747251, 118.212340) rotate(-8.181151) translate(-50.747251, -118.212340) " x="42.2214498" y="115.953893" width="17.0516021" height="4.51689459"></rect>
                <rect id="Rectangle" fill="#4E4E4E" transform="translate(70.410347, 115.383707) rotate(-8.175480) translate(-70.410347, -115.383707) " x="61.8846675" y="113.125292" width="17.0513595" height="4.51683034"></rect>
                <path d="M65.062,16.448 C66.531,26.677 59.43,36.161 49.203,37.624 C38.975,39.094 29.495,31.994 28.027,21.764 C26.559,11.544 33.658,2.061 43.883,0.59 C54.113,-0.875 63.594,6.224 65.062,16.448 Z" id="Path" fill="#CDCCCC"></path>
                <path d="M61.288,18.372 C62.476,26.645 56.925,34.286 48.887,35.437 C40.854,36.594 33.379,30.82 32.192,22.546 C31.003,14.273 36.558,6.631 44.586,5.473 C52.624,4.321 60.1,10.094 61.288,18.372 Z" id="Path" fill="#4E4E4E"></path>
                <path d="M32.191,22.547 C31.759,20.634 31.773,18.61 32.13,16.652 C32.526,14.698 33.318,12.807 34.44,11.13 C36.671,7.746 40.431,5.366 44.491,4.798 C48.546,4.201 52.819,5.421 55.915,8.044 C57.469,9.338 58.754,10.926 59.687,12.695 C60.58,14.478 61.163,16.416 61.288,18.373 C60.464,14.547 58.31,11.108 55.268,8.871 C52.236,6.631 48.375,5.594 44.685,6.161 C40.987,6.652 37.569,8.736 35.293,11.738 C33.001,14.742 31.903,18.65 32.191,22.547 Z" id="Path" fill="#333333"></path>
                <path d="M11.155,83.149 C10.216,83.279 9.234,82.926 8.601,82.122 C7.665,80.935 7.873,79.205 9.064,78.272 C9.397,78.01 9.647,77.676 9.807,77.285 C10.046,76.693 10.041,76.035 9.789,75.442 C9.539,74.85 9.077,74.393 8.477,74.152 C7.882,73.91 7.228,73.917 6.64,74.169 C6.049,74.419 5.591,74.886 5.352,75.477 C4.781,76.884 3.18,77.563 1.774,76.993 C0.369,76.422 -0.309,74.824 0.261,73.416 C1.052,71.464 2.554,69.934 4.494,69.11 C6.437,68.289 8.585,68.27 10.54,69.063 C14.575,70.696 16.529,75.309 14.897,79.346 C14.378,80.62 13.536,81.741 12.46,82.588 C12.066,82.896 11.613,83.081 11.155,83.149 Z" id="Path" fill="#4E4E4E"></path>
                <path d="M98.525,70.6 C98.062,70.669 97.58,70.619 97.115,70.433 C95.845,69.919 94.721,69.086 93.867,68.01 C91.163,64.591 91.737,59.616 95.148,56.916 C96.803,55.604 98.864,55.02 100.963,55.258 C103.058,55.503 104.93,56.547 106.239,58.198 C107.182,59.392 106.982,61.116 105.793,62.058 C104.6,62.998 102.875,62.801 101.936,61.611 C101.534,61.107 100.967,60.792 100.327,60.717 C99.693,60.642 99.066,60.819 98.559,61.216 C98.055,61.618 97.741,62.188 97.664,62.826 C97.591,63.46 97.769,64.092 98.166,64.594 C98.431,64.927 98.768,65.178 99.156,65.332 C100.563,65.899 101.246,67.497 100.685,68.904 C100.306,69.847 99.463,70.469 98.525,70.6 Z" id="Path" fill="#4E4E4E"></path>
                <path d="M54.177,31.206 C53.724,31.272 53.254,31.108 52.938,30.74 C52.442,30.165 52.509,29.299 53.084,28.805 C59.417,23.365 54.635,15.709 54.43,15.384 C54.019,14.749 54.206,13.896 54.845,13.488 C55.488,13.082 56.333,13.265 56.742,13.904 C58.938,17.337 61.37,25.306 54.875,30.889 C54.668,31.061 54.424,31.168 54.177,31.206 Z" id="Path" fill="#676767"></path>
                <path d="M54.399,11.041 C54.521,11.885 53.936,12.672 53.089,12.791 C52.245,12.913 51.462,12.327 51.341,11.481 C51.221,10.64 51.805,9.856 52.649,9.732 C53.496,9.611 54.276,10.195 54.399,11.041 Z" id="Path" fill="#676767"></path>
            </g>
            <g id="Group" transform="translate(88.000000, 213.000000)">
                <path d="M4.132,39.082 L61.726,31.479 L57.89,2.42 C57.754,1.389 56.807,0.663 55.776,0.799 L1.918,7.909 C0.887,8.046 0.161,8.993 0.296,10.024 L4.132,39.082 Z" id="Path" fill="#414142"></path>
                <path d="M57.889,2.423 L58.003,3.29 C57.866,2.251 56.918,1.525 55.89,1.661 L2.03,8.771 C1.002,8.907 0.276,9.854 0.413,10.893 L0.299,10.026 C0.162,8.989 0.888,8.041 1.916,7.905 L55.775,0.795 C56.803,0.659 57.751,1.386 57.889,2.423 Z" id="Path" fill="#7D868A"></path>
                <path d="M58.003,3.29 L61.724,31.474 L4.134,39.077 L0.413,10.893 C0.276,9.854 1.002,8.907 2.03,8.771 L55.89,1.661 C56.917,1.525 57.866,2.251 58.003,3.29 Z" id="Path" fill="#6E6F71"></path>
                <rect id="Rectangle" fill="#595A5C" transform="translate(33.059284, 36.293701) rotate(172.478430) translate(-33.059284, -36.293701) " x="4.01265643" y="34.6336938" width="58.0932547" height="3.32001456"></rect>
                <rect id="Rectangle" fill="#414142" transform="translate(33.249607, 37.738421) rotate(172.478430) translate(-33.249607, -37.738421) " x="4.20297943" y="37.5354205" width="58.0932547" height="1"></rect>
                <rect id="Rectangle" fill="#808184" transform="translate(32.923308, 35.210357) rotate(-7.521570) translate(-32.923308, -35.210357) " x="8.19719948" y="33.4883498" width="49.4522168" height="3.4440151"></rect>
                <rect id="Rectangle" fill="#595A5C" transform="translate(32.721235, 33.779367) rotate(82.553771) translate(-32.721235, -33.779367) " x="32.4462256" y="9.05254235" width="1" height="49.4536497"></rect>
            </g>
            <circle id="Oval" fill="#FFFFFF" cx="119.962" cy="233.2" r="2.844"></circle>
            <g id="Group" transform="translate(206.000000, 144.000000)">
                <g transform="translate(9.000000, 27.000000)">
                    <path d="M88.444,42.152 L69.37,9.766 C69.167,9.429 68.95,9.141 68.729,8.864 C68.194,8.029 67.35,7.399 66.315,7.135 L39.695,0.248 C38.658,-0.017 37.619,0.118 36.744,0.588 C36.417,0.729 36.084,0.883 35.743,1.084 L3.361,20.154 C1.709,21.127 0.682,22.434 1.061,23.08 L5.713,30.975 C6.092,31.62 8.057,31.442 9.711,30.46 L31.62,17.831 L24.332,46.012 C23.769,48.188 24.455,50.193 26.632,50.758 L53.251,57.643 C55.429,58.205 56.999,56.783 57.562,54.603 L64.851,26.425 L77.89,48.104 C78.861,49.75 80.333,50.824 80.98,50.443 L88.957,45.81 C89.601,45.429 89.415,43.804 88.444,42.152 Z" id="Path" fill="#CDCCCC"></path>
                    <polygon id="Path" fill="#4E4E4E" points="25.664 21.267 18.336 11.333 22.271 9.017 29.705 18.938"></polygon>
                    <polygon id="Path" fill="#4E4E4E" points="68.331 32.301 79.554 27.172 77.235 23.233 65.927 28.303"></polygon>
                    <path d="M56.476,42.213 C55.912,44.393 53.695,45.703 51.515,45.142 L34.146,40.648 C31.968,40.084 30.66,37.86 31.224,35.681 L37.088,13.002 C42.053,10.077 37.088,13.002 42.053,10.077 L59.422,14.568 C62.344,19.532 59.422,14.568 62.344,19.532 L56.476,42.213 Z" id="Path" fill="#4E4E4E"></path>
                    <g transform="translate(37.000000, 16.000000)">
                        <rect id="Rectangle" fill="#2AAAE2" transform="translate(2.846959, 2.731634) rotate(14.483717) translate(-2.846959, -2.731634) " x="0.786998863" y="1.35616025" width="4.11992017" height="2.7509467"></rect>
                        <polygon id="Path" fill="#D41C5C" points="13.819 6.979 8.501 5.604 9.187 2.944 14.503 4.321"></polygon>
                        <polygon id="Path" fill="#2AAAE2" points="21.792 9.039 17.806 8.009 18.495 5.352 22.483 6.385"></polygon>
                    </g>
                    <polygon id="Path" fill="#F3F3F3" points="55.015 39.664 33.742 34.161 37.182 20.868 58.448 26.37"></polygon>
                    <g transform="translate(36.000000, 37.000000)" fill="#F3F3F3">
                        <circle id="Oval" cx="1.496" cy="1.382" r="1.087"></circle>
                        <path d="M8.642,3.232 C8.494,3.814 7.9,4.162 7.32,4.012 C6.734,3.86 6.386,3.27 6.539,2.685 C6.685,2.106 7.281,1.753 7.859,1.905 C8.444,2.058 8.792,2.647 8.642,3.232 Z" id="Path"></path>
                        <path d="M14.733,4.809 C14.581,5.388 13.989,5.738 13.409,5.586 C12.829,5.437 12.479,4.844 12.632,4.259 C12.78,3.683 13.374,3.332 13.954,3.485 C14.536,3.635 14.886,4.225 14.733,4.809 Z" id="Path"></path>
                    </g>
                </g>
                <rect id="Rectangle" fill="#CDCCCC" transform="translate(35.394433, 93.747919) rotate(14.494811) translate(-35.394433, -93.747919) " x="28.2037122" y="77.1619107" width="14.381441" height="33.1720172"></rect>
                <rect id="Rectangle" fill="#CDCCCC" transform="translate(54.626824, 98.715536) rotate(14.507340) translate(-54.626824, -98.715536) " x="47.4364399" y="82.1328022" width="14.3807689" height="33.165467"></rect>
                <polygon id="Path" fill="#4E4E4E" points="65.214 87.38 31.753 78.723 33.24 72.987 66.696 81.638"></polygon>
                <rect id="Rectangle" fill="#4E4E4E" transform="translate(30.695873, 111.973638) rotate(14.489264) translate(-30.695873, -111.973638) " x="22.1698252" y="109.715125" width="17.0520962" height="4.51702548"></rect>
                <rect id="Rectangle" fill="#4E4E4E" transform="translate(49.909711, 116.943662) rotate(14.501793) translate(-49.909711, -116.943662) " x="41.3835613" y="114.685255" width="17.0522989" height="4.51681428"></rect>
                <path d="M83.13,23.589 C80.542,33.594 70.333,39.608 60.333,37.015 C50.33,34.429 44.319,24.223 46.908,14.218 C49.493,4.221 59.699,-1.792 69.7,0.792 C79.704,3.384 85.716,13.589 83.13,23.589 Z" id="Path" fill="#CDCCCC"></path>
                <path d="M78.905,23.909 C76.811,32.002 68.745,36.911 60.884,34.876 C53.027,32.847 48.354,24.638 50.448,16.545 C52.54,8.453 60.611,3.543 68.466,5.569 C76.327,7.604 80.999,15.814 78.905,23.909 Z" id="Path" fill="#4E4E4E"></path>
                <path d="M50.448,16.545 C50.786,14.613 51.579,12.752 52.665,11.082 C53.784,9.432 55.243,7.993 56.925,6.878 C60.288,4.615 64.675,3.868 68.64,4.909 C72.611,5.921 76.083,8.694 77.929,12.306 C78.865,14.099 79.439,16.061 79.617,18.052 C79.754,20.041 79.545,22.054 78.906,23.908 C79.621,20.061 78.959,16.057 77.013,12.821 C75.079,9.585 71.917,7.14 68.294,6.24 C64.692,5.268 60.735,5.873 57.478,7.766 C54.204,9.656 51.685,12.839 50.448,16.545 Z" id="Path" fill="#333333"></path>
                <path d="M7.677,64.355 C6.76,64.114 5.99,63.408 5.717,62.423 C5.311,60.967 6.17,59.451 7.628,59.049 C8.036,58.936 8.395,58.724 8.694,58.424 C9.143,57.97 9.392,57.361 9.388,56.716 C9.385,56.074 9.135,55.474 8.675,55.02 C8.219,54.568 7.613,54.321 6.973,54.328 C6.331,54.331 5.728,54.585 5.281,55.038 C4.212,56.117 2.473,56.126 1.396,55.058 C0.32,53.99 0.311,52.253 1.378,51.174 C2.86,49.678 4.836,48.845 6.943,48.832 C9.052,48.823 11.042,49.633 12.54,51.119 C15.634,54.181 15.659,59.19 12.597,62.287 C11.627,63.262 10.418,63.971 9.099,64.339 C8.615,64.474 8.126,64.469 7.677,64.355 Z" id="Path" fill="#4E4E4E"></path>
                <path d="M93.132,86.455 C92.679,86.341 92.253,86.108 91.896,85.758 C90.921,84.794 90.207,83.593 89.834,82.271 C88.656,78.074 91.104,73.705 95.293,72.528 C97.324,71.956 99.453,72.211 101.297,73.24 C103.137,74.272 104.461,75.958 105.033,77.987 C105.443,79.452 104.594,80.966 103.133,81.377 C101.67,81.784 100.154,80.937 99.746,79.478 C99.57,78.858 99.168,78.348 98.605,78.033 C98.048,77.72 97.402,77.641 96.783,77.812 C96.162,77.988 95.652,78.393 95.336,78.953 C95.025,79.51 94.945,80.162 95.119,80.779 C95.234,81.189 95.449,81.55 95.748,81.841 C96.826,82.906 96.842,84.644 95.781,85.725 C95.065,86.447 94.048,86.696 93.132,86.455 Z" id="Path" fill="#4E4E4E"></path>
                <path d="M67.397,33.011 C66.954,32.897 66.583,32.564 66.432,32.103 C66.196,31.381 66.592,30.608 67.313,30.374 C75.252,27.795 73.792,18.888 73.727,18.508 C73.594,17.764 74.094,17.049 74.842,16.919 C75.592,16.792 76.301,17.287 76.432,18.033 C77.135,22.048 76.307,30.338 68.162,32.987 C67.905,33.066 67.64,33.072 67.397,33.011 Z" id="Path" fill="#676767"></path>
                <path d="M75.374,14.489 C75.161,15.314 74.319,15.815 73.491,15.599 C72.667,15.385 72.169,14.543 72.384,13.715 C72.597,12.893 73.439,12.396 74.265,12.606 C75.093,12.822 75.587,13.662 75.374,14.489 Z" id="Path" fill="#676767"></path>
            </g>
            <g id="Group" transform="translate(227.000000, 185.000000)">
                <path d="M1.572,30.615 L57.546,46.167 L65.392,17.925 C65.67,16.923 65.083,15.884 64.08,15.605 L11.739,1.062 C10.736,0.784 9.697,1.372 9.418,2.374 L1.572,30.615 Z" id="Path" fill="#414142"></path>
                <path d="M65.389,17.928 L65.156,18.77 C65.436,17.761 64.848,16.722 63.849,16.443 L11.504,1.9 C10.505,1.623 9.465,2.21 9.185,3.219 L9.42,2.377 C9.699,1.369 10.739,0.781 11.738,1.058 L64.081,15.601 C65.08,15.878 65.669,16.919 65.389,17.928 Z" id="Path" fill="#7D868A"></path>
                <path d="M65.155,18.77 L57.545,46.161 L1.575,30.611 L9.184,3.22 C9.464,2.211 10.504,1.623 11.503,1.901 L63.848,16.444 C64.848,16.721 65.436,17.76 65.155,18.77 Z" id="Path" fill="#6E6F71"></path>
                <rect id="Rectangle" fill="#595A5C" transform="translate(29.290356, 39.373075) rotate(-164.472515) translate(-29.290356, -39.373075) " x="0.243420925" y="37.7135785" width="58.0938705" height="3.3189926"></rect>
                <rect id="Rectangle" fill="#414142" transform="translate(28.900075, 40.776038) rotate(-164.472515) translate(-28.900075, -40.776038) " x="-0.146860625" y="40.5730383" width="58.0938705" height="1"></rect>
                <rect id="Rectangle" fill="#808184" transform="translate(29.570672, 38.326373) rotate(15.527485) translate(-29.570672, -38.326373) " x="4.84572754" y="36.6043772" width="49.4498897" height="3.44399232"></rect>
                <rect id="Rectangle" fill="#595A5C" transform="translate(29.972585, 36.945916) rotate(105.551100) translate(-29.972585, -36.945916) " x="29.6975825" y="12.2197038" width="1" height="49.4524245"></rect>
            </g>
            <circle id="Oval" fill="#FFFFFF" cx="260.517" cy="208.58" r="2.844"></circle>
        </g>
    </g>
</svg>