<?xml version="1.0" encoding="UTF-8"?>
<svg width="165px" height="307px" viewBox="0 0 165 307" version="1.1" xmlns="http://www.w3.org/2000/svg" xmlns:xlink="http://www.w3.org/1999/xlink">
    <!-- Generator: Sketch 52.6 (67491) - http://www.bohemiancoding.com/sketch -->
    <title>sss</title>
    <desc>Created with Sketch.</desc>
    <g id="Page-1" stroke="none" stroke-width="1" fill="none" fill-rule="evenodd">
        <g id="sss">
            <g id="Group">
                <path d="M76.478,157.732 C77.722,167.22 82.993,176.302 86.307,185.168 C89.08,192.586 88.816,200.678 87.292,208.398 C86.354,213.149 83.957,218.497 80.665,222.18 C78.336,224.784 73.74,224.955 70.715,226.689 C63.878,230.603 61.247,239.189 60.348,246.571 C59.735,251.609 57.688,255.328 53.235,258.027 C49.588,260.239 45.411,261.24 41.153,261.144" id="Path" stroke="#F3F3F3" stroke-width="3"></path>
                <g transform="translate(16.000000, 0.000000)">
                    <polygon id="Path" points="79.766 48.455 52.765 57.271 71.439 68.717"></polygon>
                    <polygon id="Path" points="51.431 53.195 78.437 44.377 59.756 32.917"></polygon>
                    <polygon id="Path" points="50.913 61.118 61.363 93.123 69.767 72.674"></polygon>
                    <polygon id="Path" points="71.991 97.613 81.805 100.635 87.335 92.604"></polygon>
                    <polygon id="Path" points="142.35 230.616 131.897 198.602 123.489 219.059"></polygon>
                    <polygon id="Path" points="37.166 19.012 47.628 51.056 56.032 30.584"></polygon>
                    <polygon id="Path" points="65.135 95.342 91.341 86.784 91.75 86.193 73.492 75.004"></polygon>
                    <polygon id="Path" points="80.245 40.406 69.785 8.373 61.384 28.837"></polygon>
                    <polygon id="Path" points="93.983 82.483 83.529 50.468 75.125 70.925"></polygon>
                    <polygon id="Path" points="66.041 6.315 38.987 15.147 57.702 26.627"></polygon>
                    <polygon id="Path" points="113.501 243.473 140.601 234.627 121.859 223.139"></polygon>
                    <polygon id="Path" points="99.28 209.251 109.73 241.258 118.132 220.808"></polygon>
                    <polygon id="Path" points="128.61 188.538 118.154 156.506 109.75 176.969"></polygon>
                    <polygon id="Path" points="128.131 196.588 101.129 205.405 119.805 216.85"></polygon>
                    <polygon id="Path" points="85.532 167.147 95.994 199.189 104.397 178.717"></polygon>
                    <polygon id="Path" points="97.582 148.954 91.196 157.515 107.156 152.304"></polygon>
                    <polygon id="Path" points="114.266 154.793 113.825 154.638 87.355 163.281 106.068 174.76"></polygon>
                    <polygon id="Path" points="99.797 201.329 126.803 192.508 108.122 181.051"></polygon>
                    <path d="M124.194,137.718 C125.661,140.245 128.909,141.936 131.927,141.12 L114.19,86.795 C111.316,87.902 109.544,90.618 109.804,93.538 L108.961,93.814 L123.382,137.983 L124.194,137.718 Z" id="Path" fill="#F3F3F3"></path>
                    <path d="M119.928,148.134 L113.872,150.111 L100.532,145.444 L100.216,145.334 L86.07,102.005 L86.705,101.083 L94.053,90.413 L100.406,88.337 L71.563,0 L30.793,13.312 L59.635,101.648 L64.917,99.923 L77.955,103.936 L47.805,113.781 L47.909,114.097 C47.908,114.095 47.703,114.159 47.632,114.18 C39.929,116.696 34.426,122.861 32.418,130.133 C26.513,125.443 18.446,123.71 10.743,126.225 C10.672,126.25 10.605,126.276 10.536,126.3 L10.433,125.983 L0.92,129.091 L15.341,173.258 L24.854,170.153 L24.954,170.458 C25.023,170.435 25.095,170.417 25.165,170.394 C32.869,167.878 38.359,161.715 40.358,154.444 C46.276,159.131 54.364,160.86 62.069,158.344 C62.14,158.321 62.326,158.255 62.326,158.255 L62.226,157.95 L93.018,147.897 L84.12,159.825 L79.159,161.445 L108.001,249.784 L148.772,236.469 L119.928,148.134 Z M91.341,86.784 L65.135,95.342 L73.491,75.005 L91.749,86.194 L91.341,86.784 Z M93.983,82.483 L75.125,70.925 L83.529,50.467 L93.983,82.483 Z M80.245,40.406 L61.385,28.837 L69.785,8.372 L80.245,40.406 Z M66.041,6.315 L57.702,26.627 L38.988,15.147 L66.041,6.315 Z M37.166,19.012 L56.032,30.585 L47.629,51.056 L37.166,19.012 Z M51.431,53.195 L59.756,32.917 L78.437,44.377 L51.431,53.195 Z M79.766,48.455 L71.439,68.717 L52.765,57.271 L79.766,48.455 Z M50.913,61.118 L69.767,72.674 L61.363,93.123 L50.913,61.118 Z M71.991,97.613 L87.336,92.604 L81.806,100.634 L71.991,97.613 Z M142.35,230.616 L123.489,219.058 L131.897,198.601 L142.35,230.616 Z M128.61,188.538 L109.75,176.969 L118.154,156.506 L128.61,188.538 Z M113.825,154.638 L114.266,154.793 L106.068,174.76 L87.355,163.281 L113.825,154.638 Z M97.582,148.954 L107.156,152.304 L91.196,157.515 L97.582,148.954 Z M85.532,167.147 L104.397,178.717 L95.994,199.189 L85.532,167.147 Z M99.797,201.329 L108.121,181.051 L126.803,192.508 L99.797,201.329 Z M128.131,196.588 L119.805,216.85 L101.129,205.406 L128.131,196.588 Z M99.28,209.251 L118.133,220.808 L109.731,241.258 L99.28,209.251 Z M113.501,243.473 L121.858,223.139 L140.6,234.627 L113.501,243.473 Z" id="Shape" fill="#989898" fill-rule="nonzero"></path>
                    <polygon id="Path" fill="#2E4C9E" points="100.216 145.333 100.533 145.443 123.382 137.983 108.961 93.814 86.705 101.082 86.07 102.004"></polygon>
                    <path d="M90.3933934,116.775172 L90.3933934,118.997241 L92.6636637,118.997241 C93,118.997241 93.2762763,119.282759 93.2762763,119.630345 C93.2762763,119.977931 93,120.263448 92.6636637,120.263448 L90.3933934,120.263448 L90.3933934,122.547586 L93.5765766,122.547586 C93.9249249,122.547586 94.2012012,122.833103 94.2012012,123.193103 C94.2012012,123.553103 93.9249249,123.838621 93.5765766,123.838621 L89.6966967,123.838621 C89.3123123,123.838621 89,123.515862 89,123.118621 L89,116.204138 C89,115.806897 89.3123123,115.484138 89.6966967,115.484138 L93.4444444,115.484138 C93.7927928,115.484138 94.0690691,115.769655 94.0690691,116.129655 C94.0690691,116.489655 93.7927928,116.775172 93.4444444,116.775172 L90.3933934,116.775172 Z M101.492492,118.028966 C103.126126,118.028966 103.570571,119.108966 103.570571,120.188966 L103.570571,123.292414 C103.570571,123.664828 103.282282,123.937931 102.921922,123.937931 C102.537538,123.937931 102.273273,123.664828 102.273273,123.292414 L102.273273,120.437241 C102.273273,119.729655 101.996997,119.245517 101.216216,119.245517 C100.351351,119.245517 100.015015,119.729655 100.015015,120.424828 L100.015015,123.292414 C100.015015,123.664828 99.7267267,123.937931 99.3663664,123.937931 C98.981982,123.937931 98.7177177,123.664828 98.7177177,123.292414 L98.7177177,120.437241 C98.7177177,119.729655 98.4414414,119.245517 97.6606607,119.245517 C96.7597598,119.245517 96.4594595,119.791724 96.4594595,120.524138 L96.4594595,123.292414 C96.4594595,123.664828 96.1831832,123.937931 95.8108108,123.937931 C95.4384384,123.937931 95.1621622,123.664828 95.1621622,123.292414 L95.1621622,118.773793 C95.1621622,118.401379 95.4504505,118.103448 95.8108108,118.103448 C96.1711712,118.103448 96.4594595,118.401379 96.4594595,118.773793 C96.6876877,118.413793 97.1921922,118.028966 97.996997,118.028966 C98.981982,118.028966 99.4744745,118.351724 99.7747748,118.835862 C100.159159,118.302069 100.675676,118.028966 101.492492,118.028966 Z M109.720721,121.02069 C109.720721,123.044138 108.711712,124 107.09009,124 C105.468468,124 104.459459,123.044138 104.459459,121.02069 C104.459459,118.984828 105.468468,118.028966 107.09009,118.028966 C108.711712,118.028966 109.720721,118.984828 109.720721,121.02069 Z M108.411411,121.02069 C108.411411,119.791724 107.954955,119.171034 107.09009,119.171034 C106.225225,119.171034 105.768769,119.791724 105.768769,121.02069 C105.768769,122.237241 106.225225,122.857931 107.09009,122.857931 C107.954955,122.857931 108.411411,122.237241 108.411411,121.02069 Z M112.81982,119.22069 C112.291291,119.22069 111.918919,119.468966 111.618619,119.692414 C111.498498,119.77931 111.402402,119.816552 111.258258,119.816552 C110.945946,119.816552 110.693694,119.555862 110.693694,119.233103 C110.693694,119.096552 110.741742,118.947586 110.84985,118.823448 C111.186186,118.438621 111.786787,118.028966 112.81982,118.028966 C114.309309,118.028966 115.198198,118.786207 115.198198,120.102069 L115.198198,123.28 C115.198198,123.64 114.90991,123.937931 114.561562,123.937931 C114.213213,123.937931 113.924925,123.64 113.924925,123.28 C113.600601,123.813793 113.072072,124 112.351351,124 C111.174174,124 110.393393,123.242759 110.393393,122.125517 C110.393393,120.971034 111.294294,120.375172 112.339339,120.375172 L113.912913,120.375172 L113.912913,120.151724 C113.912913,119.593103 113.516517,119.22069 112.81982,119.22069 Z M112.687688,122.882759 C113.324324,122.882759 113.912913,122.46069 113.912913,121.765517 L113.912913,121.417931 L112.507508,121.417931 C111.978979,121.417931 111.690691,121.678621 111.690691,122.125517 C111.690691,122.597241 112.015015,122.882759 112.687688,122.882759 Z M120.375375,123.937931 C120.147147,123.937931 119.978979,123.826207 119.870871,123.677241 L118.081081,121.194483 L117.696697,121.504828 L117.696697,123.292414 C117.696697,123.664828 117.408408,123.937931 117.048048,123.937931 C116.675676,123.937931 116.399399,123.664828 116.399399,123.292414 L116.399399,115.645517 C116.399399,115.273103 116.675676,115 117.048048,115 C117.408408,115 117.696697,115.273103 117.696697,115.645517 L117.696697,120.027586 L119.870871,118.264828 C120.027027,118.14069 120.147147,118.103448 120.291291,118.103448 C120.63964,118.103448 120.915916,118.388966 120.915916,118.748966 C120.915916,118.935172 120.831832,119.133793 120.675676,119.257931 L119.102102,120.49931 L120.867868,122.895172 C120.963964,123.031724 121,123.168276 121,123.292414 C121,123.652414 120.723724,123.937931 120.375375,123.937931 Z" id="Emoak" fill="#FFFFFF" fill-rule="nonzero" transform="translate(105.000000, 119.500000) rotate(72.000000) translate(-105.000000, -119.500000) "></path>
                </g>
                <g transform="translate(0.000000, 225.000000)">
                    <g transform="translate(6.000000, 18.000000)">
                        <path d="M59.134,27.445 L45.429,6.423 C45.285,6.203 45.13,6.018 44.975,5.84 C44.593,5.299 44.012,4.905 43.312,4.76 L25.348,0.973 C24.649,0.828 23.959,0.95 23.39,1.29 C23.177,1.393 22.958,1.506 22.738,1.651 L1.717,15.351 C0.645,16.05 -0.001,16.954 0.272,17.372 L3.614,22.498 C3.886,22.916 5.191,22.738 6.265,22.033 L20.495,12.944 L16.488,31.962 C16.178,33.432 16.697,34.747 18.166,35.059 L36.129,38.844 C37.599,39.152 38.603,38.156 38.913,36.686 L42.92,17.669 L52.274,31.733 C52.971,32.801 53.985,33.474 54.405,33.201 L59.585,29.869 C60.004,29.596 59.831,28.518 59.134,27.445 Z" id="Path" fill="#CDCCCC"></path>
                        <polygon id="Path" fill="#4E4E4E" points="16.625 15.419 11.438 9.015 13.992 7.351 19.25 13.742"></polygon>
                        <polygon id="Path" fill="#4E4E4E" points="45.419 21.485 52.749 17.724 51.083 15.167 43.694 18.892"></polygon>
                        <path d="M37.813,28.455 C37.502,29.927 36.063,30.867 34.592,30.559 L22.871,28.088 C21.402,27.778 20.461,26.335 20.772,24.863 L23.996,9.558 C27.218,7.457 23.996,9.558 27.218,7.457 L38.94,9.926 C41.04,13.148 38.94,9.926 41.04,13.148 L37.813,28.455 Z" id="Path" fill="#4E4E4E"></path>
                        <g transform="translate(24.000000, 12.000000)" id="Rectangle">
                            <rect fill="#2AAAE2" transform="translate(2.030458, 1.292400) rotate(11.899872) translate(-2.030458, -1.292400) " x="0.654971231" y="0.374408763" width="2.75097344" height="1.83598227"></rect>
                            <rect fill="#D41C5C" transform="translate(7.852948, 2.514748) rotate(11.894265) translate(-7.852948, -2.514748) " x="6.019504" y="1.59727597" width="3.666889" height="1.83494445"></rect>
                            <rect fill="#2AAAE2" transform="translate(13.691652, 3.746632) rotate(11.870657) translate(-13.691652, -3.746632) " x="12.3176719" y="2.83064523" width="2.7479594" height="1.83197293"></rect>
                        </g>
                        <rect id="Rectangle" fill="#F3F3F3" transform="translate(30.517185, 20.797163) rotate(11.899872) translate(-30.517185, -20.797163) " x="23.1822557" y="16.2127071" width="14.6698584" height="9.16891147"></rect>
                        <g transform="translate(24.000000, 25.000000)" fill="#F3F3F3">
                            <circle id="Oval" cx="1.036" cy="1.476" r="1"></circle>
                            <path d="M5.859,2.493 C5.777,2.885 5.393,3.136 5,3.053 C4.605,2.97 4.355,2.587 4.44,2.192 C4.521,1.802 4.907,1.548 5.298,1.632 C5.692,1.716 5.942,2.098 5.859,2.493 Z" id="Path"></path>
                            <path d="M9.97,3.359 C9.887,3.751 9.502,4.002 9.11,3.919 C8.719,3.837 8.467,3.452 8.551,3.058 C8.633,2.669 9.018,2.416 9.41,2.5 C9.802,2.582 10.054,2.966 9.97,3.359 Z" id="Path"></path>
                        </g>
                    </g>
                    <rect id="Rectangle" fill="#CDCCCC" transform="translate(24.478872, 63.711780) rotate(11.894265) translate(-24.478872, -63.711780) " x="19.6780171" y="52.6376149" width="9.60170934" height="22.1483295"></rect>
                    <rect id="Rectangle" fill="#CDCCCC" transform="translate(37.469057, 66.456966) rotate(11.899872) translate(-37.469057, -66.456966) " x="32.6686035" y="55.3845729" width="9.6009073" height="22.1447862"></rect>
                    <rect id="Rectangle" fill="#4E4E4E" transform="translate(33.306441, 54.268033) rotate(11.905478) translate(-33.306441, -54.268033) " x="21.7678142" y="52.2900118" width="23.0772532" height="3.9560434"></rect>
                    <rect id="Rectangle" fill="#4E4E4E" transform="translate(21.907826, 76.020840) rotate(11.888658) translate(-21.907826, -76.020840) " x="16.2156159" y="74.5124165" width="11.3844208" height="3.01684651"></rect>
                    <rect id="Rectangle" fill="#4E4E4E" transform="translate(34.881244, 78.774679) rotate(11.905478) translate(-34.881244, -78.774679) " x="29.1886819" y="77.2671623" width="11.3851249" height="3.01503307"></rect>
                    <path d="M54.205,15.489 C52.782,22.241 46.156,26.56 39.407,25.135 C32.656,23.713 28.337,17.088 29.761,10.336 C31.183,3.589 37.807,-0.731 44.557,0.69 C51.307,2.115 55.627,8.74 54.205,15.489 Z" id="Path" fill="#CDCCCC"></path>
                    <ellipse id="Oval" fill="#4E4E4E" transform="translate(41.804432, 13.803894) rotate(11.899872) translate(-41.804432, -13.803894) " cx="41.8044318" cy="13.8038938" rx="9.81290526" ry="10.1029025"></ellipse>
                    <path d="M32.192,11.782 C32.359,10.483 32.833,9.218 33.505,8.07 C34.201,6.935 35.13,5.931 36.219,5.136 C38.393,3.525 41.297,2.895 43.972,3.468 C46.652,4.023 49.053,5.768 50.393,8.12 C51.071,9.288 51.513,10.579 51.693,11.902 C51.845,13.224 51.767,14.573 51.396,15.829 C51.755,13.242 51.193,10.592 49.797,8.491 C48.41,6.391 46.226,4.857 43.782,4.366 C41.35,3.828 38.73,4.351 36.615,5.713 C34.488,7.072 32.904,9.271 32.192,11.782 Z" id="Path" fill="#333333"></path>
                    <path d="M5.113,44.968 C4.494,44.835 3.959,44.388 3.747,43.739 C3.432,42.779 3.959,41.742 4.919,41.429 C5.188,41.342 5.421,41.189 5.611,40.98 C5.897,40.664 6.045,40.25 6.023,39.82 C6.001,39.392 5.816,39.001 5.496,38.711 C5.178,38.424 4.767,38.278 4.34,38.302 C3.912,38.323 3.518,38.51 3.233,38.826 C2.553,39.578 1.393,39.637 0.642,38.958 C-0.108,38.278 -0.167,37.12 0.513,36.368 C1.456,35.324 2.749,34.71 4.154,34.638 C5.561,34.568 6.912,35.048 7.957,35.992 C10.113,37.941 10.282,41.281 8.333,43.439 C7.716,44.119 6.931,44.628 6.062,44.914 C5.743,45.018 5.417,45.029 5.113,44.968 Z" id="Path" fill="#4E4E4E"></path>
                    <path d="M62.782,57.117 C62.476,57.055 62.184,56.912 61.936,56.689 C61.257,56.076 60.743,55.296 60.455,54.425 C59.542,51.661 61.042,48.674 63.801,47.762 C65.139,47.318 66.566,47.424 67.827,48.055 C69.085,48.687 70.02,49.771 70.463,51.107 C70.781,52.073 70.26,53.107 69.298,53.426 C68.336,53.741 67.299,53.222 66.982,52.262 C66.845,51.854 66.562,51.525 66.178,51.331 C65.797,51.14 65.363,51.106 64.955,51.24 C64.546,51.377 64.218,51.661 64.025,52.045 C63.833,52.425 63.8,52.862 63.935,53.269 C64.024,53.539 64.178,53.774 64.387,53.959 C65.139,54.636 65.202,55.794 64.527,56.548 C64.071,57.054 63.4,57.25 62.782,57.117 Z" id="Path" fill="#4E4E4E"></path>
                    <path d="M43.996,22.25 C43.698,22.188 43.44,21.978 43.327,21.674 C43.148,21.199 43.388,20.672 43.861,20.494 C49.078,18.533 47.835,12.637 47.78,12.385 C47.669,11.893 47.981,11.401 48.475,11.291 C48.971,11.185 49.459,11.492 49.569,11.987 C50.159,14.643 49.859,20.197 44.506,22.212 C44.337,22.272 44.161,22.284 43.996,22.25 Z" id="Path" fill="#676767"></path>
                    <circle id="Oval" fill="#676767" cx="47.747" cy="9.442" r="1.031"></circle>
                </g>
            </g>
            <g id="Group" transform="translate(18.000000, 254.000000)">
                <path d="M0.744,17.033 L32.421,23.817 L35.843,7.835 C35.965,7.269 35.603,6.709 35.035,6.588 L5.413,0.244 C4.846,0.122 4.287,0.484 4.165,1.051 L0.744,17.033 Z" id="Path" fill="#414142"></path>
                <path d="M35.842,7.836 L35.739,8.313 C35.862,7.743 35.5,7.183 34.934,7.061 L5.312,0.718 C4.746,0.596 4.188,0.958 4.065,1.53 L4.167,1.051 C4.29,0.482 4.849,0.118 5.414,0.24 L35.036,6.585 C35.602,6.706 35.964,7.266 35.842,7.836 Z" id="Path" fill="#7D868A"></path>
                <path d="M35.739,8.312 L32.42,23.813 L0.745,17.031 L4.065,1.53 C4.188,0.958 4.746,0.595 5.312,0.718 L34.934,7.061 C35.5,7.183 35.862,7.742 35.739,8.312 Z" id="Path" fill="#6E6F71"></path>
                <rect id="Rectangle" fill="#595A5C" transform="translate(16.457325, 20.989955) rotate(-167.912446) translate(-16.457325, -20.989955) " x="0.260301414" y="20.0634818" width="32.3940476" height="1.85294552"></rect>
                <rect id="Rectangle" fill="#414142" transform="translate(16.287497, 21.784500) rotate(-167.912446) translate(-16.287497, -21.784500) " x="0.0904735135" y="21.6705033" width="32.3940476" height="1"></rect>
                <rect id="Rectangle" fill="#808184" transform="translate(16.599160, 20.380143) rotate(12.087554) translate(-16.599160, -20.380143) " x="2.81156487" y="19.4206717" width="27.5751893" height="1.91894358"></rect>
                <rect id="Rectangle" fill="#595A5C" transform="translate(16.773017, 19.599389) rotate(102.081951) translate(-16.773017, -19.599389) " x="16.6200246" y="5.81208284" width="1" height="27.5746119"></rect>
            </g>
            <circle id="Oval" fill="#FFFFFF" cx="36.305" cy="266.019" r="1.723"></circle>
        </g>
    </g>
</svg>