<?xml version="1.0" encoding="UTF-8"?>
<svg width="1440px" height="240px" viewBox="0 0 1440 240" version="1.1" xmlns="http://www.w3.org/2000/svg" xmlns:xlink="http://www.w3.org/1999/xlink">
    <!-- Generator: Sketch 52.6 (67491) - http://www.bohemiancoding.com/sketch -->
    <title>Desktop HD</title>
    <desc>Created with Sketch.</desc>
    <g id="Desktop-HD" stroke="none" stroke-width="1" fill="none" fill-rule="evenodd">
        <ellipse id="Oval" fill="#000000" fill-rule="nonzero" cx="720" cy="425.5" rx="737" ry="401.5"></ellipse>
        <circle id="Oval" fill="#000000" fill-rule="nonzero" cx="45" cy="261" r="31"></circle>
        <circle id="Oval-Copy" fill="#000000" fill-rule="nonzero" cx="115" cy="201" r="31"></circle>
        <circle id="Oval-Copy-2" fill="#000000" fill-rule="nonzero" cx="205" cy="141" r="31"></circle>
        <circle id="Oval-Copy-3" fill="#000000" fill-rule="nonzero" cx="325" cy="101" r="31"></circle>
        <circle id="Oval-Copy-4" fill="#000000" fill-rule="nonzero" cx="425" cy="51" r="31"></circle>
        <circle id="Oval-Copy-5" fill="#000000" fill-rule="nonzero" cx="565" cy="41" r="31"></circle>
        <circle id="Oval-Copy-6" fill="#000000" fill-rule="nonzero" cx="675" cy="31" r="31"></circle>
        <circle id="Oval-Copy-7" fill="#000000" fill-rule="nonzero" cx="825" cy="41" r="31"></circle>
        <circle id="Oval-Copy-8" fill="#000000" fill-rule="nonzero" cx="955" cy="51" r="31"></circle>
        <circle id="Oval-Copy-9" fill="#000000" fill-rule="nonzero" cx="1085" cy="81" r="31"></circle>
        <circle id="Oval-Copy-10" fill="#000000" fill-rule="nonzero" cx="1195" cy="121" r="31"></circle>
        <circle id="Oval-Copy-11" fill="#000000" fill-rule="nonzero" cx="1295" cy="171" r="31"></circle>
        <circle id="Oval-Copy-12" fill="#000000" fill-rule="nonzero" cx="1385" cy="251" r="31"></circle>
        <circle id="Oval-Copy-26" fill="#000000" fill-rule="nonzero" cx="60" cy="226" r="46"></circle>
        <circle id="Oval-Copy-25" fill="#000000" fill-rule="nonzero" cx="150" cy="166" r="46"></circle>
        <circle id="Oval-Copy-24" fill="#000000" fill-rule="nonzero" cx="270" cy="126" r="46"></circle>
        <circle id="Oval-Copy-23" fill="#000000" fill-rule="nonzero" cx="370" cy="76" r="46"></circle>
        <circle id="Oval-Copy-22" fill="#000000" fill-rule="nonzero" cx="510" cy="66" r="46"></circle>
        <circle id="Oval-Copy-21" fill="#000000" fill-rule="nonzero" cx="620" cy="56" r="46"></circle>
        <circle id="Oval-Copy-20" fill="#000000" fill-rule="nonzero" cx="770" cy="66" r="46"></circle>
        <circle id="Oval-Copy-19" fill="#000000" fill-rule="nonzero" cx="900" cy="76" r="46"></circle>
        <circle id="Oval-Copy-18" fill="#000000" fill-rule="nonzero" cx="1030" cy="106" r="46"></circle>
        <circle id="Oval-Copy-17" fill="#000000" fill-rule="nonzero" cx="1140" cy="146" r="46"></circle>
        <circle id="Oval-Copy-16" fill="#000000" fill-rule="nonzero" cx="1240" cy="196" r="46"></circle>
        <circle id="Oval-Copy-15" fill="#000000" fill-rule="nonzero" cx="1330" cy="276" r="46"></circle>
        <circle id="Oval-Copy-40" fill="#000000" fill-rule="nonzero" cx="130" cy="226" r="46"></circle>
        <circle id="Oval-Copy-39" fill="#000000" fill-rule="nonzero" cx="220" cy="166" r="46"></circle>
        <circle id="Oval-Copy-38" fill="#000000" fill-rule="nonzero" cx="340" cy="126" r="46"></circle>
        <circle id="Oval-Copy-37" fill="#000000" fill-rule="nonzero" cx="440" cy="76" r="46"></circle>
        <circle id="Oval-Copy-36" fill="#000000" fill-rule="nonzero" cx="580" cy="66" r="46"></circle>
        <circle id="Oval-Copy-35" fill="#000000" fill-rule="nonzero" cx="690" cy="56" r="46"></circle>
        <circle id="Oval-Copy-34" fill="#000000" fill-rule="nonzero" cx="840" cy="66" r="46"></circle>
        <circle id="Oval-Copy-33" fill="#000000" fill-rule="nonzero" cx="970" cy="76" r="46"></circle>
        <circle id="Oval-Copy-32" fill="#000000" fill-rule="nonzero" cx="1100" cy="106" r="46"></circle>
        <circle id="Oval-Copy-31" fill="#000000" fill-rule="nonzero" cx="1210" cy="146" r="46"></circle>
        <circle id="Oval-Copy-30" fill="#000000" fill-rule="nonzero" cx="1310" cy="196" r="46"></circle>
        <circle id="Oval-Copy-29" fill="#000000" fill-rule="nonzero" cx="1400" cy="276" r="46"></circle>
        <circle id="Oval-Copy-54" fill="#000000" fill-rule="nonzero" cx="160" cy="226" r="46"></circle>
        <circle id="Oval-Copy-53" fill="#000000" fill-rule="nonzero" cx="250" cy="166" r="46"></circle>
        <circle id="Oval-Copy-52" fill="#000000" fill-rule="nonzero" cx="370" cy="126" r="46"></circle>
        <circle id="Oval-Copy-51" fill="#000000" fill-rule="nonzero" cx="470" cy="76" r="46"></circle>
        <circle id="Oval-Copy-50" fill="#000000" fill-rule="nonzero" cx="610" cy="66" r="46"></circle>
        <circle id="Oval-Copy-49" fill="#000000" fill-rule="nonzero" cx="720" cy="56" r="46"></circle>
        <circle id="Oval-Copy-48" fill="#000000" fill-rule="nonzero" cx="870" cy="66" r="46"></circle>
        <circle id="Oval-Copy-47" fill="#000000" fill-rule="nonzero" cx="1000" cy="76" r="46"></circle>
        <circle id="Oval-Copy-46" fill="#000000" fill-rule="nonzero" cx="1130" cy="106" r="46"></circle>
        <circle id="Oval-Copy-45" fill="#000000" fill-rule="nonzero" cx="1240" cy="146" r="46"></circle>
        <circle id="Oval-Copy-44" fill="#000000" fill-rule="nonzero" cx="1340" cy="196" r="46"></circle>
        <circle id="Oval-Copy-43" fill="#000000" fill-rule="nonzero" cx="1430" cy="276" r="46"></circle>
        <circle id="Oval-Copy-110" fill="#000000" fill-rule="nonzero" cx="85" cy="241" r="31"></circle>
        <circle id="Oval-Copy-109" fill="#000000" fill-rule="nonzero" cx="175" cy="181" r="31"></circle>
        <circle id="Oval-Copy-108" fill="#000000" fill-rule="nonzero" cx="295" cy="141" r="31"></circle>
        <circle id="Oval-Copy-107" fill="#000000" fill-rule="nonzero" cx="395" cy="91" r="31"></circle>
        <circle id="Oval-Copy-106" fill="#000000" fill-rule="nonzero" cx="535" cy="81" r="31"></circle>
        <circle id="Oval-Copy-105" fill="#000000" fill-rule="nonzero" cx="645" cy="71" r="31"></circle>
        <circle id="Oval-Copy-104" fill="#000000" fill-rule="nonzero" cx="795" cy="81" r="31"></circle>
        <circle id="Oval-Copy-103" fill="#000000" fill-rule="nonzero" cx="925" cy="91" r="31"></circle>
        <circle id="Oval-Copy-102" fill="#000000" fill-rule="nonzero" cx="1055" cy="121" r="31"></circle>
        <circle id="Oval-Copy-101" fill="#000000" fill-rule="nonzero" cx="1165" cy="161" r="31"></circle>
        <circle id="Oval-Copy-100" fill="#000000" fill-rule="nonzero" cx="1265" cy="211" r="31"></circle>
        <circle id="Oval-Copy-96" fill="#000000" fill-rule="nonzero" cx="30" cy="266" r="46"></circle>
        <circle id="Oval-Copy-95" fill="#000000" fill-rule="nonzero" cx="120" cy="206" r="46"></circle>
        <circle id="Oval-Copy-94" fill="#000000" fill-rule="nonzero" cx="240" cy="166" r="46"></circle>
        <circle id="Oval-Copy-93" fill="#000000" fill-rule="nonzero" cx="340" cy="116" r="46"></circle>
        <circle id="Oval-Copy-92" fill="#000000" fill-rule="nonzero" cx="480" cy="106" r="46"></circle>
        <circle id="Oval-Copy-91" fill="#000000" fill-rule="nonzero" cx="590" cy="96" r="46"></circle>
        <circle id="Oval-Copy-90" fill="#000000" fill-rule="nonzero" cx="740" cy="106" r="46"></circle>
        <circle id="Oval-Copy-89" fill="#000000" fill-rule="nonzero" cx="870" cy="116" r="46"></circle>
        <circle id="Oval-Copy-88" fill="#000000" fill-rule="nonzero" cx="1000" cy="146" r="46"></circle>
        <circle id="Oval-Copy-87" fill="#000000" fill-rule="nonzero" cx="1110" cy="186" r="46"></circle>
        <circle id="Oval-Copy-86" fill="#000000" fill-rule="nonzero" cx="1210" cy="236" r="46"></circle>
        <circle id="Oval-Copy-82" fill="#000000" fill-rule="nonzero" cx="100" cy="266" r="46"></circle>
        <circle id="Oval-Copy-81" fill="#000000" fill-rule="nonzero" cx="190" cy="206" r="46"></circle>
        <circle id="Oval-Copy-80" fill="#000000" fill-rule="nonzero" cx="310" cy="166" r="46"></circle>
        <circle id="Oval-Copy-79" fill="#000000" fill-rule="nonzero" cx="410" cy="116" r="46"></circle>
        <circle id="Oval-Copy-78" fill="#000000" fill-rule="nonzero" cx="550" cy="106" r="46"></circle>
        <circle id="Oval-Copy-77" fill="#000000" fill-rule="nonzero" cx="660" cy="96" r="46"></circle>
        <circle id="Oval-Copy-76" fill="#000000" fill-rule="nonzero" cx="810" cy="106" r="46"></circle>
        <circle id="Oval-Copy-75" fill="#000000" fill-rule="nonzero" cx="940" cy="116" r="46"></circle>
        <circle id="Oval-Copy-74" fill="#000000" fill-rule="nonzero" cx="1070" cy="146" r="46"></circle>
        <circle id="Oval-Copy-73" fill="#000000" fill-rule="nonzero" cx="1180" cy="186" r="46"></circle>
        <circle id="Oval-Copy-72" fill="#000000" fill-rule="nonzero" cx="1280" cy="236" r="46"></circle>
        <circle id="Oval-Copy-68" fill="#000000" fill-rule="nonzero" cx="130" cy="266" r="46"></circle>
        <circle id="Oval-Copy-67" fill="#000000" fill-rule="nonzero" cx="220" cy="206" r="46"></circle>
        <circle id="Oval-Copy-66" fill="#000000" fill-rule="nonzero" cx="340" cy="166" r="46"></circle>
        <circle id="Oval-Copy-65" fill="#000000" fill-rule="nonzero" cx="440" cy="116" r="46"></circle>
        <circle id="Oval-Copy-64" fill="#000000" fill-rule="nonzero" cx="580" cy="106" r="46"></circle>
        <circle id="Oval-Copy-63" fill="#000000" fill-rule="nonzero" cx="690" cy="96" r="46"></circle>
        <circle id="Oval-Copy-62" fill="#000000" fill-rule="nonzero" cx="840" cy="106" r="46"></circle>
        <circle id="Oval-Copy-61" fill="#000000" fill-rule="nonzero" cx="970" cy="116" r="46"></circle>
        <circle id="Oval-Copy-60" fill="#000000" fill-rule="nonzero" cx="1100" cy="146" r="46"></circle>
        <circle id="Oval-Copy-59" fill="#000000" fill-rule="nonzero" cx="1210" cy="186" r="46"></circle>
        <circle id="Oval-Copy-58" fill="#000000" fill-rule="nonzero" cx="1310" cy="236" r="46"></circle>
        <circle id="Oval-Copy-166" fill="#000000" fill-rule="nonzero" cx="165" cy="251" r="31"></circle>
        <circle id="Oval-Copy-165" fill="#000000" fill-rule="nonzero" cx="255" cy="191" r="31"></circle>
        <circle id="Oval-Copy-164" fill="#000000" fill-rule="nonzero" cx="375" cy="151" r="31"></circle>
        <circle id="Oval-Copy-163" fill="#000000" fill-rule="nonzero" cx="475" cy="101" r="31"></circle>
        <circle id="Oval-Copy-162" fill="#000000" fill-rule="nonzero" cx="615" cy="91" r="31"></circle>
        <circle id="Oval-Copy-161" fill="#000000" fill-rule="nonzero" cx="725" cy="81" r="31"></circle>
        <circle id="Oval-Copy-160" fill="#000000" fill-rule="nonzero" cx="875" cy="91" r="31"></circle>
        <circle id="Oval-Copy-159" fill="#000000" fill-rule="nonzero" cx="1005" cy="101" r="31"></circle>
        <circle id="Oval-Copy-158" fill="#000000" fill-rule="nonzero" cx="1135" cy="131" r="31"></circle>
        <circle id="Oval-Copy-157" fill="#000000" fill-rule="nonzero" cx="1245" cy="171" r="31"></circle>
        <circle id="Oval-Copy-156" fill="#000000" fill-rule="nonzero" cx="1345" cy="221" r="31"></circle>
        <circle id="Oval-Copy-152" fill="#000000" fill-rule="nonzero" cx="110" cy="276" r="46"></circle>
        <circle id="Oval-Copy-151" fill="#000000" fill-rule="nonzero" cx="200" cy="216" r="46"></circle>
        <circle id="Oval-Copy-150" fill="#000000" fill-rule="nonzero" cx="320" cy="176" r="46"></circle>
        <circle id="Oval-Copy-149" fill="#000000" fill-rule="nonzero" cx="420" cy="126" r="46"></circle>
        <circle id="Oval-Copy-148" fill="#000000" fill-rule="nonzero" cx="560" cy="116" r="46"></circle>
        <circle id="Oval-Copy-147" fill="#000000" fill-rule="nonzero" cx="670" cy="106" r="46"></circle>
        <circle id="Oval-Copy-146" fill="#000000" fill-rule="nonzero" cx="820" cy="116" r="46"></circle>
        <circle id="Oval-Copy-145" fill="#000000" fill-rule="nonzero" cx="950" cy="126" r="46"></circle>
        <circle id="Oval-Copy-144" fill="#000000" fill-rule="nonzero" cx="1080" cy="156" r="46"></circle>
        <circle id="Oval-Copy-143" fill="#000000" fill-rule="nonzero" cx="1190" cy="196" r="46"></circle>
        <circle id="Oval-Copy-142" fill="#000000" fill-rule="nonzero" cx="1290" cy="246" r="46"></circle>
        <circle id="Oval-Copy-138" fill="#000000" fill-rule="nonzero" cx="180" cy="276" r="46"></circle>
        <circle id="Oval-Copy-137" fill="#000000" fill-rule="nonzero" cx="270" cy="216" r="46"></circle>
        <circle id="Oval-Copy-136" fill="#000000" fill-rule="nonzero" cx="390" cy="176" r="46"></circle>
        <circle id="Oval-Copy-135" fill="#000000" fill-rule="nonzero" cx="490" cy="126" r="46"></circle>
        <circle id="Oval-Copy-134" fill="#000000" fill-rule="nonzero" cx="630" cy="116" r="46"></circle>
        <circle id="Oval-Copy-133" fill="#000000" fill-rule="nonzero" cx="740" cy="106" r="46"></circle>
        <circle id="Oval-Copy-132" fill="#000000" fill-rule="nonzero" cx="890" cy="116" r="46"></circle>
        <circle id="Oval-Copy-131" fill="#000000" fill-rule="nonzero" cx="1020" cy="126" r="46"></circle>
        <circle id="Oval-Copy-130" fill="#000000" fill-rule="nonzero" cx="1150" cy="156" r="46"></circle>
        <circle id="Oval-Copy-129" fill="#000000" fill-rule="nonzero" cx="1260" cy="196" r="46"></circle>
        <circle id="Oval-Copy-128" fill="#000000" fill-rule="nonzero" cx="1360" cy="246" r="46"></circle>
        <circle id="Oval-Copy-124" fill="#000000" fill-rule="nonzero" cx="210" cy="276" r="46"></circle>
        <circle id="Oval-Copy-123" fill="#000000" fill-rule="nonzero" cx="300" cy="216" r="46"></circle>
        <circle id="Oval-Copy-122" fill="#000000" fill-rule="nonzero" cx="420" cy="176" r="46"></circle>
        <circle id="Oval-Copy-121" fill="#000000" fill-rule="nonzero" cx="520" cy="126" r="46"></circle>
        <circle id="Oval-Copy-120" fill="#000000" fill-rule="nonzero" cx="660" cy="116" r="46"></circle>
        <circle id="Oval-Copy-119" fill="#000000" fill-rule="nonzero" cx="770" cy="106" r="46"></circle>
        <circle id="Oval-Copy-118" fill="#000000" fill-rule="nonzero" cx="920" cy="116" r="46"></circle>
        <circle id="Oval-Copy-117" fill="#000000" fill-rule="nonzero" cx="1050" cy="126" r="46"></circle>
        <circle id="Oval-Copy-116" fill="#000000" fill-rule="nonzero" cx="1180" cy="156" r="46"></circle>
        <circle id="Oval-Copy-115" fill="#000000" fill-rule="nonzero" cx="1290" cy="196" r="46"></circle>
        <circle id="Oval-Copy-114" fill="#000000" fill-rule="nonzero" cx="1390" cy="246" r="46"></circle>
    </g>
</svg>