<?xml version="1.0" encoding="UTF-8"?>
<svg width="618px" height="447px" viewBox="0 0 618 447" version="1.1" xmlns="http://www.w3.org/2000/svg" xmlns:xlink="http://www.w3.org/1999/xlink">
    <!-- Generator: Sketch 53.2 (72643) - https://sketchapp.com -->
    <title>tree</title>
    <desc>Created with Sketch.</desc>
    <g id="Page-1" stroke="none" stroke-width="1" fill="none" fill-rule="evenodd">
        <g id="Group" transform="translate(-507.000000, 0.000000)" fill="#000000">
            <g id="tree" transform="translate(507.409533, 0.558077)">
                <path d="M356.495775,336.546893 C359.000482,331.938501 361.86339,327.378173 362.609209,326.820866 C363.337746,326.276473 360.426782,334.533038 358.352639,342.866893 C359.045364,344.842656 359.779272,346.611138 360.511941,348.1746 C361.427534,345.48101 362.126624,343.639097 362.609209,342.648861 C364.068209,339.655086 365.492326,338.418634 365.835863,338.418634 C366.203738,338.418634 365.965352,340.268474 365.835863,343.963109 C365.794487,345.143664 365.794487,347.338034 365.835863,350.54622 L373.477007,343.3715 L365.835863,354.564983 L370.334078,350.54622 L370.334078,354.564983 L373.477007,350.54622 L370.334078,357.545697 L374.864344,352.373763 L373.477007,358.464047 L375.808858,358.464047 L375.017482,361.840077 C390.928577,368.355617 419.085709,373.448965 422.570725,373.448965 C427.065428,373.448965 440.385841,373.448965 443.564872,373.448965 C446.743904,373.448965 455.202569,375.325625 460.988983,375.325625 C466.775396,375.325625 501.189522,375.671898 519.726093,380.446829 C532.083807,383.630116 560.954517,405.437453 606.338225,445.868841 L4.41634609,445.868841 C-6.06541562,430.919543 2.11089311,419.47186 28.9452723,411.525793 C69.196841,399.606692 182.503898,367.995652 181.286019,362.820425 C180.474099,359.370274 181.81083,355.755714 185.296212,351.976746 C187.230645,361.380837 188.197862,363.177386 188.197862,357.366392 C188.197862,351.555398 189.972949,346.83189 193.523122,343.195868 C193.523122,349.956058 193.523122,352.883018 193.523122,351.976746 C193.523122,351.070473 195.635327,346.746243 199.859738,339.004056 C200.461084,344.170373 200.761758,345.876214 200.761758,344.121577 C200.761758,342.366941 202.422042,338.457377 205.74261,332.392886 L205.74261,353.336154 L212.65749,337.229779 L212.65749,342.233713 C214.763621,336.540154 216.123839,334.075239 216.738145,334.83897 C217.659602,335.984566 215.816687,343.195868 216.738145,343.195868 C217.659602,343.195868 219.949579,330.911386 221.093353,330.911386 C222.237127,330.911386 219.949579,342.530134 221.093353,341.040738 C222.237127,339.551342 233.057908,307.354136 239.284278,289.361354 C245.510648,271.368572 245.601433,243.421724 245.601433,237.542411 C245.601433,231.663099 229.619333,189.438568 229.619333,188.046433 C229.619333,186.654298 233.388891,165.654493 235.838889,181.264734 C238.288887,196.874974 254.994815,221.570534 257.026588,220.990862 C259.058361,220.41119 258.161756,218.756087 260.181316,216.205242 C262.200876,213.654397 268.300943,207.453816 274.583455,197.183708 C280.865967,186.9136 297.448994,95.3517739 298.68134,88.3648232 C299.913685,81.3778726 298.68134,72.2581789 298.68134,68.7942663 C298.68134,65.3303538 301.015954,59.2429561 301.015954,57.0637573 C301.015954,55.610958 287.777462,36.5897056 261.300478,-2.84217094e-14 C385.945714,-2.84217094e-14 448.268332,-2.84217094e-14 448.268332,-2.84217094e-14 C448.268332,-2.84217094e-14 429.900212,21.0516002 413.328128,42.3096487 C399.991601,59.4172444 388.41775,76.6829901 383.939755,83.0315077 C373.897364,97.2687491 371.545619,112.073895 368.518902,121.026231 C365.492184,129.978566 366.085257,135.538677 366.085257,137.615569 C366.085257,139.69246 365.169656,151.801268 366.085257,152.868118 C367.000859,153.934967 370.010674,153.619116 371.545619,153.619116 C373.080565,153.619116 394.946441,153.619116 399.19907,153.619116 C403.451699,153.619116 409.191739,153.891995 411.161832,153.891995 C413.131925,153.891995 420.177608,152.868118 422.570725,152.868118 C424.963841,152.868118 441.145922,150.867916 444.981014,149.8147 C447.215532,149.201044 450.898206,148.72515 454.375323,147.695206 C456.865965,146.957463 459.225959,145.504001 460.988983,145.504001 C465.213318,145.504001 476.842783,144.642354 484.055665,142.103047 C488.864253,140.410175 496.919972,130.926687 508.222823,113.652583 C498.706387,131.878407 493.948169,141.361895 493.948169,142.103047 C493.948169,142.844199 512.145588,140.673953 548.540428,135.592309 C544.743019,141.625672 541.462938,144.642354 538.700188,144.642354 C535.612428,144.642354 486.366969,150.325958 463.129283,155.003777 C455.179339,156.604125 449.833888,156.793381 451.017975,158.350635 C455.663145,164.459741 488.697995,172.337555 490.652182,170.867089 C492.606369,169.396623 560.447335,167.45067 563.722865,166.678085 C565.906551,166.163028 582.324048,164.065446 612.975356,160.38534 C612.980777,161.524646 612.301998,162.576973 610.939016,163.542321 C608.894545,164.990343 569.53411,171.033203 563.722865,172.337555 C557.911619,173.641907 490.840234,177.498366 485.475672,177.498366 C480.111111,177.498366 474.949429,176.289794 463.129283,173.567024 C455.870472,171.894958 451.199985,168.609302 446.370211,166.108758 C443.335248,164.53745 440.525665,162.723128 436.070508,163.542321 C428.549803,164.925191 418.361607,167.692437 407.996802,170.867089 C402.450646,172.56583 396.638998,173.836654 391.638077,176.289794 C383.034591,180.510127 370.872582,183.238831 361.772356,194.068606 C355.697464,201.298067 350.473491,211.839489 350.473491,229.941923 C350.473491,260.022939 351.033744,303.632887 355.373894,330.911386 C355.691176,332.905553 356.070893,334.783749 356.495775,336.546893 Z M301.5386,18.4507223 C313.410866,28.8422942 319.346998,34.6312759 319.346998,35.8176676 C319.346998,37.597255 321.09966,21.5039484 323.089016,19.9773353 C324.065555,19.2279484 320.642225,21.6984135 312.391318,21.5008175 C310.421554,21.4536448 306.803982,20.4369464 301.5386,18.4507223 Z M370.040194,19.6329394 L367.495422,35.0931839 C373.131826,29.4158698 376.410057,26.1388908 377.330116,25.2622467 C378.710204,23.9472806 379.491296,22.7583847 386.616281,14.9522862 C386.966805,14.5682542 386.172743,14.3189359 385.755975,14.0450515 C385.059819,13.5875633 383.874248,13.2596605 383.431492,12.9945816 C382.935131,12.6974092 382.367004,12.5920978 381.727112,12.6786472 C378.999322,15.0877501 376.974528,16.6855687 375.652731,17.4721032 C374.330934,18.2586377 372.460088,18.9789164 370.040194,19.6329394 Z"></path>
                <path d="M582.043604,141.514751 C580.104849,140.90605 575.030449,139.28171 575.030449,138.908955 C575.030449,138.486511 580.009806,138.836364 582.517521,140.080006 C583.435102,138.716792 585.564395,137.616484 587.944131,139.029598 C590.719188,140.677458 592.162726,145.736785 596.539625,145.05316 C599.240513,144.63131 599.899465,144.423187 602.565109,143.280345 C603.874976,142.718766 605.387565,142.718766 607.371351,141.907878 C611.32474,140.291901 615.266778,136.869523 616.113951,136.791135 C616.962928,136.71258 615.130117,138.493425 610.615517,142.133672 C615.693639,140.332753 617.985721,139.75293 617.491765,140.394201 C617.113278,140.885568 614.381642,142.708087 611.564197,144.601815 C614.422745,144.79636 615.916176,144.997909 616.04449,145.206463 C616.196221,145.453077 614.420294,145.678875 610.716709,145.88386 C612.676147,146.262225 613.42904,146.519952 612.975388,146.65704 C612.568349,146.780042 610.942768,146.880624 608.098647,146.958784 C607.790274,147.173418 607.49547,147.380874 607.218591,147.578733 C609.906549,147.88858 611.175311,148.155204 611.024875,148.378606 C610.859867,148.623648 608.983831,148.821969 605.396768,148.973567 C605.370572,148.996714 605.345429,149.019288 605.321366,149.041274 C607.575972,149.240685 608.667979,149.406368 608.597387,149.538324 C608.522756,149.67783 607.143722,149.788879 604.460286,149.871472 C603.24968,151.049323 602.107667,152.237443 601.504305,153.608084 C601.220516,154.252758 600.08036,155.426281 598.069115,156.071048 L597.819282,162.855382 L596.921901,162.855382 L596.921901,156.357363 C596.340702,156.463863 595.704644,156.525434 595.013493,156.525434 C594.492858,156.525434 594.008031,156.51133 593.554881,156.483677 L592.816898,161.485624 L594.854547,162.855382 L587.82364,164.543553 L587.82364,163.449299 C589.694122,161.891535 590.865939,161.112653 591.339093,161.112653 C591.770008,161.112653 591.942915,159.506687 591.857815,156.294754 C588.678804,155.752524 587.379062,154.286316 585.421811,152.236716 C583.199737,149.909798 581.907658,143.95597 582.043604,141.514751 Z" id="bird-full"></path>
                <path d="M582.704505,140.176939 C580.267119,138.854718 575.030449,138.475734 575.030449,138.908955 C575.030449,139.342175 581.884616,141.465953 582.704505,141.721117 C583.524394,141.976281 585.141891,141.499159 582.704505,140.176939 Z" id="rot-down" transform="translate(579.512177, 140.262636) scale(1, -1) rotate(-34.000000) translate(-579.512177, -140.262636) "></path>
            </g>
        </g>
    </g>
</svg>