<?xml version="1.0" encoding="UTF-8"?>
<svg width="1681px" height="62px" viewBox="0 0 1681 62" version="1.1" xmlns="http://www.w3.org/2000/svg" xmlns:xlink="http://www.w3.org/1999/xlink">
    <!-- Generator: Sketch 53.2 (72643) - https://sketchapp.com -->
    <title>tree-top</title>
    <desc>Created with Sketch.</desc>
    <g id="Page-1" stroke="none" stroke-width="1" fill="none" fill-rule="evenodd">
        <g id="Group" fill="#000000" fill-rule="nonzero">
            <path d="M806.623947,21.1583186 C798.669215,21.7611479 773.15994,30.190875 766.505982,25.5065952 C766.135762,25.2496516 765.095143,25.3089463 764.834988,25.6153021 C758.961494,32.4045431 752.157446,32.0784223 744.883119,28.2835628 C740.690625,38.4130707 732.235595,42.1881654 721.9895,43.749592 C715.495637,44.7378367 709.251923,44.3128915 702.968185,42.6625229 C697.875155,41.3185101 693.482542,38.8676633 689.58022,35.389042 C688.919827,34.8059777 687.408929,34.4502096 686.648476,34.7862128 C677.96331,38.6502495 669.058012,39.2629612 659.862542,37.0097633 C659.192143,36.8417617 658.221565,37.0888229 657.631214,37.4940032 C649.156173,43.2949995 641.651708,42.8404069 634.15725,36.2191675 C633.146649,35.3297473 631.485661,34.8850372 630.074821,34.7763303 C625.962375,34.4502096 622.540339,32.9579601 619.898768,29.8054596 C618.517946,28.1649734 617.217173,28.5503888 615.556185,29.548516 C607.451363,34.3909149 599.206458,34.4106798 591.051607,29.6868702 C589.370607,28.7183904 588.039815,27.1569638 586.879125,26.1687191 C584.04744,27.226141 581.485917,28.3922697 578.814327,29.1038058 C577.283417,29.5089862 575.502357,29.4002793 573.921417,29.0939234 C570.449351,28.421917 567.177405,26.4948399 563.45519,27.6016739 C562.66472,27.8388527 561.574071,27.9772069 561.203851,28.5405064 C557.601708,33.995617 552.458649,36.1994027 546.054839,35.6262207 C543.353232,35.389042 541.322024,35.853517 539.13072,37.8102415 C537.409696,39.3420207 534.487958,39.5297872 532.116548,40.3895601 C531.366101,40.6662686 530.195405,41.0714489 530.085339,41.5952186 C528.634476,48.1966931 521.9505,52.3868505 514.48606,51.8927282 C513.585524,51.8334335 512.164679,52.5054399 511.744429,53.2466234 C505.991006,63.4749558 490.351702,64.937558 482.507036,56.5868904 C482.226869,56.290417 481.866655,56.0631207 481.526452,55.7962947 C481.266298,55.8852367 480.966119,55.8951191 480.826036,56.0433558 C476.753613,60.470692 471.57053,61.2810527 465.967196,60.3026904 C462.034857,59.6208016 459.123125,57.1897197 457.232,53.8791 C456.231405,52.1200245 455.250821,52.0014351 453.659875,52.4955574 C445.715149,54.985934 438.801036,50.0941229 436.259524,43.8879463 C435.79925,42.7613473 435.178881,41.6940431 434.628554,40.5970915 C433.607946,41.2888628 432.597345,41.980634 431.576738,42.6526404 C423.56197,47.9101021 414.746726,49.7284723 405.211054,48.8884644 C397.886696,48.2461053 391.25275,45.983025 385.459304,41.4865117 C381.036673,38.0474202 377.70469,33.8572628 376.403917,28.2934452 C376.243821,27.6016739 375.843583,26.9494324 375.793554,26.8308431 C372.161393,26.8308431 368.889446,27.117434 365.677536,26.761666 C361.204875,26.2675436 358.42322,23.2830447 356.802256,19.3597133 C356.261935,18.0552303 355.661577,17.7291096 354.440851,17.8773463 C351.789274,18.1837021 349.477899,17.5314606 347.726857,15.4462644 C346.766286,14.2900181 345.995827,14.5469617 345.105298,15.5648537 C338.451339,23.1644553 324.002744,23.2830447 317.468857,15.5253239 C316.998577,14.9620245 315.60775,14.5864915 314.947357,14.8533176 C309.854327,16.8792191 304.831339,17.1163979 299.678274,15.0509665 C299.057905,14.8039053 297.63706,15.3375574 297.21681,15.9403867 C291.643494,23.8166968 279.436232,25.3781234 271.131292,20.7333734 C270.17072,20.1898388 269.410268,19.6067745 268.389661,20.8717277 C262.276024,28.421917 253.981089,31.0012356 244.53547,30.9122936 C237.691399,30.8529989 231.427673,29.0543936 225.784315,24.8247064 C223.022673,27.5226144 220.421125,30.3489941 216.118565,30.7541745 C212.026131,31.1395899 208.383964,30.2106399 204.941917,28.1353261 C202.100226,36.5255234 195.526315,40.3796777 187.621613,42.6229931 C177.335494,45.5383149 167.20947,44.9947803 157.483685,40.5180319 C154.75206,39.2629612 152.280589,37.3062367 149.949202,35.3593947 C148.788512,34.3909149 147.938006,34.1833835 146.657244,34.7565654 C138.002095,38.6206021 129.076786,39.2827261 119.881315,36.980116 C119.170893,36.8022319 118.070238,37.1975298 117.479887,37.7015346 C111.31622,42.9688787 100.06953,42.909584 94.3261131,36.4168165 C93.4355833,35.4088069 91.5644702,34.9048021 90.0935952,34.7763303 C85.9811488,34.4205622 82.5491071,32.9480777 79.9175417,29.7955771 C78.5267143,28.1353261 77.115875,28.3626223 75.6049762,29.5979282 C69.8915774,34.2525606 56.6136786,34.1043239 51.050369,29.7066351 C49.5694881,28.5306239 48.1786607,27.2360234 46.5777083,25.8524808 C45.9573393,26.2280138 45.2569226,26.6331941 44.5765179,27.0581394 C39.8136845,29.9932261 34.8007024,30.368759 29.8877798,27.7993229 C27.9266131,26.7715484 26.3156548,28.046384 24.6846845,27.6313213 C22.3733095,27.0383745 21.4827798,28.3033277 20.3120833,29.8351069 C16.6599107,34.5786814 11.6069048,36.1598729 5.73341071,35.6558681 C3.67218452,35.477984 1.54091667,35.1024511 0,37.0591755 L0,0 C560.333333,0 1120.66667,0 1681,0 C1681,15.9799165 1681,31.9203032 1681,47.9002197 C1680.4997,48.1472808 1679.91936,48.3054 1679.50911,48.6611681 C1676.33723,51.378841 1672.53496,51.8235511 1668.54259,51.8729633 C1667.59202,51.8828457 1666.2012,52.4560277 1665.78095,53.1873287 C1659.94748,63.5935452 1643.88792,64.9474404 1636.16333,56.290417 C1636.00323,56.112533 1635.7731,55.9939436 1635.47292,55.7666473 C1635.23277,55.8951191 1634.89257,55.9741787 1634.68245,56.1915925 C1630.99025,60.0259819 1626.45755,61.0339915 1621.24445,60.470692 C1616.56167,59.9568048 1613.43981,57.3676037 1611.11843,53.701216 C1609.41213,51.0134856 1602.41925,57.470692 1594.19327,52.6184106 C1586.14181,47.8690708 1589.71203,39.3324602 1587.55441,41.1208612 C1583.39193,44.5698351 1578.58908,46.7933856 1573.35596,47.9990441 C1558.92738,51.3195463 1541.45699,47.6037463 1533.15205,34.6280936 C1531.49106,32.0388925 1530.5505,29.0049814 1529.22971,26.0698947 C1526.05783,27.2063761 1522.86593,27.8388527 1519.35384,26.8604904 C1515.15134,25.6844793 1512.47975,23.1446904 1510.67868,19.3794782 C1510.35849,18.7074718 1509.28785,17.8971112 1508.62746,17.9465234 C1505.65569,18.1738197 1503.21424,17.4326362 1501.36314,15.0213191 C1501.133,14.7248457 1500.67273,14.6161388 1500.65271,14.6062564 C1498.01114,16.4147441 1495.7598,18.4604106 1493.10823,19.6561867 C1486.28417,22.7197452 1477.20877,21.6820883 1471.94564,15.970034 C1470.67488,14.5864915 1469.60424,14.3493128 1467.88322,15.1003787 C1463.42057,17.0274558 1458.81783,16.9978085 1454.31515,15.2189681 C1452.79424,14.6260213 1451.83367,14.8137878 1450.91312,16.0985058 C1445.38984,23.777167 1433.48276,25.3188287 1425.51802,20.8914926 C1423.86704,19.972425 1422.99652,19.9921899 1421.66573,21.6030287 C1417.14304,27.0976691 1411.00939,29.8845191 1403.9652,30.6158202 C1396.46073,31.3965335 1389.08635,30.8727638 1382.58248,26.6430766 C1380.2711,25.1409447 1379.12042,25.1607096 1377.18927,27.2755532 C1373.39701,31.4360633 1366.20273,32.0290101 1360.78951,29.1433356 C1360.14913,28.79745 1359.52876,28.421917 1358.85836,28.0365016 C1356.3969,35.8436346 1350.46337,39.9152027 1343.26909,42.1288707 C1331.74223,45.6766691 1320.30543,45.3307835 1309.43896,39.5495521 C1307.41776,38.4723654 1305.56666,36.9702335 1303.88566,35.3989245 C1302.80502,34.3909149 1301.92449,34.084559 1300.60371,34.6972707 C1291.96857,38.6897793 1283.04326,39.2234314 1273.8578,36.9702335 C1273.13737,36.7923495 1272.0067,37.1481175 1271.42635,37.6620048 C1265.00253,43.2949995 1253.23553,42.4352266 1248.26257,36.3772867 C1247.4621,35.3989245 1245.66102,34.8850372 1244.2702,34.7862128 C1240.05769,34.4798569 1236.5456,32.977725 1233.84399,29.7560473 C1232.44316,28.0957963 1231.14239,28.5800362 1229.50141,29.5583984 C1221.47664,34.3415027 1213.29177,34.3316202 1205.18695,29.7758122 C1203.49594,28.8270973 1202.14514,27.2557883 1200.67426,26.0007176 C1198.60303,26.9296676 1196.56182,27.9870894 1194.42054,28.7579202 C1190.4882,30.1809926 1186.79601,29.1038058 1183.04377,27.6708511 C1181.60292,27.117434 1179.66176,27.9277947 1178.09083,27.5621441 C1175.84949,27.0383745 1175.23913,28.4910941 1174.22853,29.7955771 C1170.61638,34.460092 1165.67344,36.1796378 1159.91001,35.6064558 C1157.26844,35.3396298 1155.3573,35.9325766 1153.20602,37.711417 C1151.35492,39.2530787 1148.39316,39.4704925 1145.96171,40.3697952 C1145.24129,40.6366213 1144.23068,41.0813314 1144.04057,41.6643957 C1141.80924,48.5722261 1136.17589,52.3670856 1128.61139,51.7939037 C1127.21056,51.6851968 1126.30002,51.9026106 1125.56958,53.236741 C1119.89621,63.5935452 1104.11682,64.8584984 1096.42224,56.5374782 C1096.14208,56.2410048 1095.81188,55.9939436 1095.38162,55.6184106 C1094.22093,56.5572431 1093.1603,57.5850175 1091.94958,58.3756133 C1085.5958,62.5361234 1074.87943,61.3502298 1070.84703,53.2960356 C1070.00653,51.6259021 1068.80582,52.1496718 1067.68515,52.5054399 C1059.82047,54.9958165 1052.89635,50.2127122 1050.36485,44.1844197 C1050.33483,44.1053601 1050.27479,44.0460654 1050.23477,43.9670058 C1049.70445,42.8502894 1049.17414,41.7236904 1048.64382,40.6069739 C1047.55317,41.3185101 1046.45252,42.0300463 1045.36187,42.7415824 C1037.57724,47.8606899 1028.98213,49.6494128 1019.72662,48.947759 C1011.15152,48.2955175 1003.44693,45.5580798 997.243244,39.5594346 C995.081958,37.4742383 993.551048,34.7565654 991.719958,32.335366 C991.289702,31.762184 990.929488,30.9320585 990.349143,30.7047622 C986.887083,29.350867 983.395006,28.0661489 979.862905,26.9000202 C976.640988,25.832716 974.169518,28.2045032 971.347839,28.975334 C960.79156,31.8511261 950.785607,31.3174739 941.710208,24.6072926 C940.409435,23.6486952 889.028647,10.882583 887.527754,12.5033043 C878.848853,21.9249583 851.758164,19.6854299 832.968981,19.3597133 C816.145589,19.0680743 807.025727,21.1256393 806.623947,21.1583186 Z" id="tree-top"></path>
        </g>
    </g>
</svg>