<?xml version="1.0" encoding="UTF-8"?>
<svg width="1681px" height="76px" viewBox="0 0 1681 76" version="1.1" xmlns="http://www.w3.org/2000/svg" xmlns:xlink="http://www.w3.org/1999/xlink">
    <!-- Generator: Sketch 53.2 (72643) - https://sketchapp.com -->
    <title>tree-bottom</title>
    <desc>Created with Sketch.</desc>
    <g id="Page-1" stroke="none" stroke-width="1" fill="none" fill-rule="evenodd">
        <g id="Group" transform="translate(0.000000, -386.000000)" fill="#000000">
            <path d="M0,435.346723 L18.1814207,435.313249 C23.989682,435.302555 29.7945654,435.03236 35.5787066,434.503471 L71.0955847,431.255885 C71.9524887,431.177531 72.809902,431.104851 73.6677682,431.037847 L138.111146,426.004536 C141.499398,425.739898 144.880152,425.386727 148.249944,424.945385 L174.675906,421.484374 C176.683763,421.221404 178.687402,420.927175 180.686093,420.601792 L189.913243,419.099631 C198.050208,417.77495 206.28084,417.109366 214.524928,417.109366 L272.875924,417.109366 C276.033181,417.109366 279.189972,417.032687 282.343505,416.879397 L334.874745,414.325904 C338.962358,414.12721 343.042704,413.799885 347.109718,413.344416 L378.777444,409.797919 C385.983478,408.990908 393.228916,408.586461 400.479999,408.586461 L436.35676,408.586461 C448.668635,408.586461 460.952842,407.420449 473.044845,405.104043 L494.985979,400.900888 C498.553874,400.217404 502.084884,399.353758 505.565459,398.313265 L505.565459,398.313265 C509.029831,397.277616 512.626454,396.751526 516.242314,396.751526 L523.741039,396.751526 C528.886815,396.751526 534.021064,396.264968 539.075236,395.298347 L539.075236,395.298347 C544.116071,394.334277 549.266775,394.078312 554.378357,394.537855 L603.616209,398.964452 C610.363788,399.571075 617.138396,399.825644 623.912472,399.727123 L1023.50749,393.915513 C1026.50791,393.871876 1029.26512,392.256172 1030.76972,389.659898 L1030.76972,389.659898 C1032.18449,387.218622 1035.1123,386.09723 1037.79593,386.968761 L1058.00914,393.533176 C1064.60473,395.675152 1071.36453,397.273849 1078.22088,398.313265 L1080.44605,398.6506 C1085.7907,399.460844 1091.23483,399.34674 1096.54084,398.313265 L1096.54084,398.313265 C1101.82788,397.283485 1107.27181,397.37039 1112.52329,398.568404 L1137.71146,404.314549 C1150.16524,407.155616 1162.86806,408.766113 1175.63682,409.122828 L1218.12733,410.309865 C1219.94205,410.360562 1221.7574,410.385914 1223.57283,410.385914 L1270.80283,410.385914 C1277.78086,410.385914 1284.75386,410.760475 1291.69174,411.50798 L1337.0202,416.391788 C1341.45897,416.870032 1345.91286,417.195699 1350.37398,417.368214 L1371.97008,418.203349 C1378.16743,418.443004 1384.37269,418.386863 1390.56468,418.035116 L1394.0663,417.836201 C1402.55131,417.354196 1411.06137,418.106173 1419.33038,420.06862 L1422.17762,420.744342 C1432.3597,423.160807 1442.76989,424.487569 1453.23258,424.702245 L1491.39975,425.485367 C1495.36461,425.566719 1499.3307,425.40242 1503.27524,424.993415 L1503.27524,424.993415 C1507.18045,424.588489 1511.12718,425.004205 1514.86231,426.213903 L1516.381,426.70576 C1521.13585,428.245716 1526.11617,428.973616 1531.11286,428.858904 L1587.76945,427.558201 C1593.30874,427.431032 1598.82931,428.246856 1604.09505,429.97078 L1606.99701,430.920841 C1610.3453,432.017019 1613.84618,432.575503 1617.36933,432.575503 L1617.36933,432.575503 C1620.90823,432.575503 1624.4406,432.8792 1627.92756,433.48325 L1636.05469,434.891121 C1637.80796,435.194841 1639.56531,435.474549 1641.32623,435.730167 L1642.40752,435.887128 C1644.88169,436.246281 1647.38817,436.328758 1649.8806,436.133034 L1659.39412,435.385963 C1660.14767,435.326788 1660.90087,435.263233 1661.65368,435.1953 L1667.16956,434.697553 C1671.58056,434.299509 1676.02472,434.482014 1680.38823,435.240396 L1681,435.346723 L1681,462 L0,462 L0,435.346723 Z" id="tree-bottom"></path>
        </g>
    </g>
</svg>