<?xml version="1.0" encoding="UTF-8"?>
<svg width="24px" height="24px" viewBox="0 0 24 24" version="1.1" xmlns="http://www.w3.org/2000/svg" xmlns:xlink="http://www.w3.org/1999/xlink">
    <!-- Generator: Sketch 53.2 (72643) - https://sketchapp.com -->
    <title>twitter</title>
    <desc>Created with Sketch.</desc>
    <g id="Page-1" stroke="none" stroke-width="1" fill="none" fill-rule="evenodd">
        <g id="twitter" fill="#010002" fill-rule="nonzero">
            <path d="M11.9850185,0 C5.36629158,0 0,5.36629158 0,11.9850185 C0,18.6037454 5.36629158,23.970037 11.9850185,23.970037 C18.6037454,23.970037 23.970037,18.6037454 23.970037,11.9850185 C23.970037,5.36481314 18.6037454,0 11.9850185,0 Z M17.9475647,9.29435729 L17.9565339,9.67638604 C17.9565339,13.5774949 14.9887639,18.0719014 9.56101848,18.0719014 C7.89511294,18.0719014 6.34452567,17.5835236 5.03817659,16.746037 C5.2689117,16.7729938 5.50408214,16.7879754 5.74230801,16.7879754 C7.1250924,16.7879754 8.39699384,16.3160575 9.40671869,15.5250431 C8.11535113,15.5010924 7.0261848,14.6471458 6.65016838,13.4756304 C6.83142505,13.510078 7.01420945,13.5265873 7.20596304,13.5265873 C7.47563039,13.5265873 7.73627926,13.4921396 7.98347433,13.4247228 C6.63365914,13.1520493 5.61644353,11.9610678 5.61644353,10.5318604 L5.61644353,10.4944066 C6.01493224,10.7161232 6.46886242,10.8479507 6.95275565,10.86446 C6.16174127,10.3356222 5.64039425,9.43224641 5.64039425,8.40901848 C5.64039425,7.86820534 5.78572485,7.36183984 6.03888296,6.92589733 C7.49356879,8.71165503 9.668846,9.88617659 12.1212813,10.0090349 C12.0703244,9.79328131 12.0448953,9.56708008 12.0448953,9.33639425 C12.0448953,7.70794251 13.3662259,6.38656263 14.9962053,6.38656263 C15.8441396,6.38656263 16.6112033,6.74459138 17.1504887,7.31837372 C17.8216509,7.18501848 18.4538809,6.93935113 19.0246571,6.60226694 C18.8044189,7.29141684 18.3370349,7.86968378 17.7272772,8.23520329 C18.3220534,8.16478029 18.8928296,8.00446817 19.4216674,7.77077618 C19.0261848,8.36101848 18.5243039,8.88088706 17.9475647,9.29435729 Z" id="Shape"></path>
        </g>
    </g>
</svg>